{"glyphs":{"0":{"ha":1001,"x_min":53,"x_max":949,"o":"m 500 -24 q 244 42 344 -24 q 99 217 144 107 q 53 461 53 326 q 99 704 53 594 q 244 881 144 814 q 500 947 344 947 q 756 881 656 947 q 903 704 857 814 q 949 461 949 594 q 903 217 949 326 q 756 42 857 108 q 500 -24 656 -24 m 272 461 q 323 226 272 303 q 500 150 374 150 q 678 226 628 150 q 729 461 729 303 q 678 699 729 622 q 500 775 628 775 q 323 699 374 775 q 272 461 272 622 z "},"1":{"ha":722,"x_min":81,"x_max":682,"o":"m 81 0 l 81 165 l 288 165 l 288 758 l 94 758 l 94 924 l 288 924 q 448 876 397 924 q 499 743 499 828 l 499 165 l 682 165 l 682 0 l 81 0 z "},"2":{"ha":958,"x_min":78,"x_max":889,"o":"m 88 0 l 88 165 l 557 501 q 633 578 611 540 q 656 661 656 615 q 618 751 656 717 q 504 786 581 786 q 292 554 297 786 l 78 554 q 124 747 81 658 q 263 892 167 836 q 511 947 358 947 q 786 872 701 947 q 871 676 871 797 q 806 499 871 582 q 585 315 740 415 l 372 165 l 889 165 l 889 0 l 88 0 z "},"3":{"ha":921,"x_min":54,"x_max":860,"o":"m 268 300 q 322 178 272 221 q 458 136 372 136 q 592 178 544 136 q 639 300 639 219 q 595 414 639 372 q 478 456 551 456 q 397 445 432 456 q 326 413 363 435 l 247 542 l 567 758 l 93 758 l 93 924 l 804 924 l 804 758 l 493 547 q 590 556 535 556 q 713 532 651 556 q 817 449 774 508 q 860 294 860 390 q 761 65 860 153 q 458 -24 663 -24 q 161 61 265 -24 q 54 300 57 146 l 268 300 z "},"4":{"ha":942,"x_min":40,"x_max":903,"o":"m 753 924 l 753 365 l 903 365 l 903 200 l 753 200 l 753 0 l 543 0 l 543 200 l 40 200 l 40 365 l 440 924 l 753 924 m 543 806 l 221 365 l 543 365 l 543 806 z "},"5":{"ha":924,"x_min":63,"x_max":869,"o":"m 539 610 q 778 533 688 610 q 869 307 869 456 q 765 64 869 151 q 454 -24 661 -24 q 165 56 263 -24 q 63 263 68 136 l 283 263 q 335 172 290 207 q 465 138 379 138 q 609 180 563 138 q 656 307 656 222 q 612 435 656 392 q 483 478 568 478 q 297 389 360 478 l 93 389 l 128 924 l 826 924 l 826 758 l 299 758 l 282 525 q 539 610 369 610 z "},"6":{"ha":915,"x_min":54,"x_max":851,"o":"m 542 592 q 695 561 625 592 q 808 467 765 531 q 851 307 851 403 q 803 135 851 210 q 668 18 756 60 q 465 -24 581 -24 q 164 89 274 -24 q 54 454 54 201 q 170 824 54 701 q 479 947 286 947 q 743 875 650 947 q 850 675 836 803 l 642 675 q 479 789 619 789 q 313 716 365 789 q 261 494 261 643 l 261 476 q 378 562 304 532 q 542 592 453 592 m 458 136 q 594 178 551 136 q 636 296 636 221 q 593 415 636 374 q 464 457 550 457 q 326 414 374 457 q 279 296 279 371 q 323 180 279 224 q 458 136 367 136 z "},"7":{"ha":813,"x_min":38,"x_max":775,"o":"m 38 758 l 38 924 l 775 924 l 775 799 q 601 600 671 699 q 483 355 531 501 q 426 0 436 208 l 215 0 q 317 416 224 226 q 561 758 411 606 l 38 758 z "},"8":{"ha":897,"x_min":56,"x_max":842,"o":"m 449 -22 q 149 55 243 -22 q 56 249 56 132 q 97 385 56 324 q 224 478 139 446 q 118 565 154 511 q 82 692 82 619 q 170 873 82 800 q 449 946 258 946 q 661 910 579 946 q 780 817 743 875 q 817 692 817 760 q 779 567 817 622 q 674 479 742 513 q 800 385 758 446 q 842 249 842 324 q 747 56 842 133 q 449 -22 653 -22 m 449 539 q 621 671 621 539 q 449 799 621 799 q 278 671 278 799 q 449 539 278 539 m 449 125 q 631 267 631 125 q 585 372 631 333 q 449 410 540 410 q 312 372 357 410 q 267 267 267 333 q 449 125 267 125 z "},"9":{"ha":915,"x_min":64,"x_max":861,"o":"m 450 949 q 751 836 642 949 q 861 471 861 724 q 745 101 861 225 q 436 -22 629 -22 q 173 50 267 -22 q 65 250 79 122 l 274 250 q 323 167 283 199 q 436 136 363 136 q 602 210 550 136 q 654 432 654 283 l 654 450 q 537 364 611 394 q 374 333 463 333 q 220 364 290 333 q 107 458 150 394 q 64 618 64 522 q 112 790 64 715 q 247 907 160 865 q 450 949 335 949 m 451 468 q 589 511 542 468 q 636 631 636 554 q 592 747 636 703 q 457 790 549 790 q 322 748 364 790 q 279 631 279 706 q 322 510 279 553 q 451 468 365 468 z "}," ":{"ha":351,"x_min":0,"x_max":0,"o":""},"A":{"ha":1054,"x_min":42,"x_max":1014,"o":"m 1014 0 l 801 0 l 735 189 l 321 189 l 254 0 l 42 0 l 367 924 l 689 924 l 1014 0 m 528 778 l 378 351 l 678 351 l 528 778 z "},"Á":{"ha":1054,"x_min":42,"x_max":1014,"o":"m 1014 0 l 801 0 l 735 189 l 321 189 l 254 0 l 42 0 l 367 924 l 689 924 l 1014 0 m 528 778 l 378 351 l 678 351 l 528 778 m 685 1176 l 725 1047 l 351 1001 l 333 1056 l 685 1176 z "},"Ă":{"ha":1054,"x_min":42,"x_max":1014,"o":"m 1014 0 l 801 0 l 735 189 l 321 189 l 254 0 l 42 0 l 367 924 l 689 924 l 1014 0 m 528 778 l 378 351 l 678 351 l 528 778 m 440 1157 q 466 1108 443 1126 q 529 1090 489 1090 q 592 1108 569 1090 q 618 1157 615 1126 l 733 1157 q 682 1051 729 1096 q 529 1007 635 1007 q 376 1051 424 1007 q 325 1157 329 1096 l 440 1157 z "},"Ǎ":{"ha":1054,"x_min":42,"x_max":1014,"o":"m 1014 0 l 801 0 l 735 189 l 321 189 l 254 0 l 42 0 l 367 924 l 689 924 l 1014 0 m 528 778 l 378 351 l 678 351 l 528 778 m 474 1003 l 306 1106 l 374 1181 l 529 1083 l 685 1181 l 753 1106 l 585 1003 l 474 1003 z "},"Â":{"ha":1054,"x_min":42,"x_max":1014,"o":"m 1014 0 l 801 0 l 735 189 l 321 189 l 254 0 l 42 0 l 367 924 l 689 924 l 1014 0 m 528 778 l 378 351 l 678 351 l 528 778 m 374 1010 l 306 1085 l 474 1188 l 585 1188 l 753 1085 l 685 1010 l 529 1107 l 374 1010 z "},"Ä":{"ha":1054,"x_min":42,"x_max":1014,"o":"m 1014 0 l 801 0 l 735 189 l 321 189 l 254 0 l 42 0 l 367 924 l 689 924 l 1014 0 m 528 778 l 378 351 l 678 351 l 528 778 m 485 1015 l 296 1015 l 296 1153 l 485 1153 l 485 1015 m 761 1015 l 572 1015 l 572 1153 l 761 1153 l 761 1015 z "},"À":{"ha":1054,"x_min":42,"x_max":1014,"o":"m 1014 0 l 801 0 l 735 189 l 321 189 l 254 0 l 42 0 l 367 924 l 689 924 l 1014 0 m 528 778 l 378 351 l 678 351 l 528 778 m 708 1001 l 333 1047 l 374 1176 l 725 1056 l 708 1001 z "},"Ā":{"ha":1054,"x_min":42,"x_max":1014,"o":"m 1014 0 l 801 0 l 735 189 l 321 189 l 254 0 l 42 0 l 367 924 l 689 924 l 1014 0 m 528 778 l 378 351 l 678 351 l 528 778 m 258 1029 l 258 1157 l 799 1157 l 799 1029 l 258 1029 z "},"Ą":{"ha":1054,"x_min":42,"x_max":1014,"o":"m 899 -132 q 971 -122 940 -132 l 972 -249 q 882 -265 939 -265 q 739 -219 793 -265 q 685 -96 685 -174 q 775 74 685 4 l 735 189 l 321 189 l 254 0 l 42 0 l 367 924 l 689 924 l 1014 0 l 825 0 q 814 -51 814 -26 q 839 -111 814 -90 q 899 -132 864 -132 m 528 778 l 378 351 l 678 351 l 528 778 z "},"Å":{"ha":1054,"x_min":42,"x_max":1014,"o":"m 1014 0 l 801 0 l 735 189 l 321 189 l 254 0 l 42 0 l 367 924 l 689 924 l 1014 0 m 528 778 l 378 351 l 678 351 l 528 778 m 529 975 q 422 1017 463 975 q 382 1118 382 1058 q 422 1219 382 1178 q 529 1261 463 1261 q 635 1219 596 1261 q 675 1118 675 1178 q 635 1017 675 1058 q 529 975 596 975 m 478 1118 q 492 1078 478 1093 q 529 1064 507 1064 q 565 1078 550 1064 q 581 1118 581 1093 q 565 1157 581 1143 q 529 1171 550 1171 q 492 1158 507 1171 q 478 1118 478 1144 z "},"Ã":{"ha":1054,"x_min":42,"x_max":1014,"o":"m 1014 0 l 801 0 l 735 189 l 321 189 l 254 0 l 42 0 l 367 924 l 689 924 l 1014 0 m 528 778 l 378 351 l 678 351 l 528 778 m 649 1013 q 585 1023 615 1013 q 515 1053 556 1033 q 443 1078 465 1078 q 410 1036 410 1078 l 410 1015 l 282 1015 l 282 1056 q 317 1142 282 1115 q 410 1169 351 1169 q 476 1159 447 1169 q 544 1129 504 1149 q 584 1110 568 1117 q 615 1104 600 1104 q 649 1146 649 1104 l 649 1167 l 776 1167 l 776 1131 q 741 1042 776 1071 q 649 1013 706 1013 z "},"Æ":{"ha":1521,"x_min":35,"x_max":1451,"o":"m 933 393 l 933 168 l 1451 168 l 1451 0 l 722 0 l 722 189 l 361 189 l 243 0 l 35 0 l 35 8 l 606 924 l 1447 924 l 1447 757 l 933 757 l 933 550 l 1406 550 l 1406 393 l 933 393 m 722 769 l 463 351 l 722 351 l 722 769 z "},"B":{"ha":940,"x_min":81,"x_max":885,"o":"m 682 476 q 885 251 885 444 q 808 67 885 133 q 586 0 732 0 l 81 0 l 81 924 l 596 924 q 804 860 736 924 q 872 696 872 797 q 821 547 872 600 q 682 476 769 494 m 292 764 l 292 543 l 526 543 q 651 654 651 543 q 624 737 651 710 q 533 764 597 764 l 292 764 m 539 161 q 665 281 665 161 q 526 401 665 401 l 292 401 l 292 161 l 539 161 z "},"C":{"ha":1075,"x_min":63,"x_max":1019,"o":"m 546 -24 q 271 42 379 -24 q 113 216 163 107 q 63 461 63 325 q 113 706 63 596 q 272 881 164 815 q 547 947 381 947 q 889 852 779 947 q 1015 561 999 757 l 799 561 q 731 722 789 668 q 550 775 674 775 q 348 697 413 775 q 283 461 283 618 q 345 227 283 304 q 543 150 407 150 q 733 206 672 150 q 801 374 793 261 l 1019 374 q 960 150 1010 238 q 808 19 910 63 q 546 -24 707 -24 z "},"Ć":{"ha":1075,"x_min":63,"x_max":1019,"o":"m 546 -24 q 271 42 379 -24 q 113 216 163 107 q 63 461 63 325 q 113 706 63 596 q 272 881 164 815 q 547 947 381 947 q 889 852 779 947 q 1015 561 999 757 l 799 561 q 731 722 789 668 q 550 775 674 775 q 348 697 413 775 q 283 461 283 618 q 345 227 283 304 q 543 150 407 150 q 733 206 672 150 q 801 374 793 261 l 1019 374 q 960 150 1010 238 q 808 19 910 63 q 546 -24 707 -24 m 693 1176 l 733 1047 l 360 1001 l 342 1056 l 693 1176 z "},"Č":{"ha":1075,"x_min":63,"x_max":1019,"o":"m 546 -24 q 271 42 379 -24 q 113 216 163 107 q 63 461 63 325 q 113 706 63 596 q 272 881 164 815 q 547 947 381 947 q 889 852 779 947 q 1015 561 999 757 l 799 561 q 731 722 789 668 q 550 775 674 775 q 348 697 413 775 q 283 461 283 618 q 345 227 283 304 q 543 150 407 150 q 733 206 672 150 q 801 374 793 261 l 1019 374 q 960 150 1010 238 q 808 19 910 63 q 546 -24 707 -24 m 482 1003 l 314 1106 l 382 1181 l 538 1083 l 693 1181 l 761 1106 l 593 1003 l 482 1003 z "},"Ç":{"ha":1075,"x_min":63,"x_max":1019,"o":"m 1019 374 q 917 93 1006 189 q 638 -19 828 -3 l 661 -124 q 665 -158 665 -143 q 638 -228 665 -203 q 560 -254 610 -254 l 411 -254 l 411 -126 l 519 -126 l 494 -22 q 169 127 275 -7 q 63 461 63 261 q 113 706 63 596 q 272 881 164 815 q 547 947 381 947 q 889 852 779 947 q 1015 561 999 757 l 799 561 q 731 722 789 668 q 550 775 674 775 q 348 697 413 775 q 283 461 283 618 q 345 227 283 304 q 543 150 407 150 q 733 206 672 150 q 801 374 793 261 l 1019 374 z "},"Ċ":{"ha":1075,"x_min":63,"x_max":1019,"o":"m 546 -24 q 271 42 379 -24 q 113 216 163 107 q 63 461 63 325 q 113 706 63 596 q 272 881 164 815 q 547 947 381 947 q 889 852 779 947 q 1015 561 999 757 l 799 561 q 731 722 789 668 q 550 775 674 775 q 348 697 413 775 q 283 461 283 618 q 345 227 283 304 q 543 150 407 150 q 733 206 672 150 q 801 374 793 261 l 1019 374 q 960 150 1010 238 q 808 19 910 63 q 546 -24 707 -24 m 650 1015 l 426 1015 l 426 1153 l 650 1153 l 650 1015 z "},"D":{"ha":1014,"x_min":81,"x_max":961,"o":"m 525 924 q 767 861 669 924 q 913 694 865 799 q 961 464 961 590 q 913 232 961 338 q 767 63 865 126 q 525 0 669 0 l 81 0 l 81 924 l 525 924 m 478 168 q 679 241 617 168 q 742 464 742 314 q 679 685 742 614 q 478 757 617 757 l 292 757 l 292 168 l 478 168 z "},"Ð":{"ha":1124,"x_min":39,"x_max":1071,"o":"m 635 924 q 877 861 779 924 q 1023 694 975 799 q 1071 464 1071 590 q 1023 232 1071 338 q 877 63 975 126 q 635 0 779 0 l 190 0 l 190 386 l 39 386 l 39 532 l 190 532 l 190 924 l 635 924 m 588 168 q 789 241 726 168 q 851 464 851 314 q 789 685 851 614 q 588 757 726 757 l 401 757 l 401 532 l 622 532 l 622 386 l 401 386 l 401 168 l 588 168 z "},"Ď":{"ha":1014,"x_min":81,"x_max":961,"o":"m 525 924 q 767 861 669 924 q 913 694 865 799 q 961 464 961 590 q 913 232 961 338 q 767 63 865 126 q 525 0 669 0 l 81 0 l 81 924 l 525 924 m 478 168 q 679 241 617 168 q 742 464 742 314 q 679 685 742 614 q 478 757 617 757 l 292 757 l 292 168 l 478 168 m 451 1003 l 283 1106 l 351 1181 l 507 1083 l 663 1181 l 731 1106 l 563 1003 l 451 1003 z "},"Đ":{"ha":1124,"x_min":39,"x_max":1071,"o":"m 635 924 q 877 861 779 924 q 1023 694 975 799 q 1071 464 1071 590 q 1023 232 1071 338 q 877 63 975 126 q 635 0 779 0 l 190 0 l 190 386 l 39 386 l 39 532 l 190 532 l 190 924 l 635 924 m 588 168 q 789 241 726 168 q 851 464 851 314 q 789 685 851 614 q 588 757 726 757 l 401 757 l 401 532 l 622 532 l 622 386 l 401 386 l 401 168 l 588 168 z "},"E":{"ha":879,"x_min":81,"x_max":810,"o":"m 292 393 l 292 168 l 810 168 l 810 0 l 81 0 l 81 924 l 806 924 l 806 757 l 292 757 l 292 550 l 764 550 l 764 393 l 292 393 z "},"É":{"ha":879,"x_min":81,"x_max":810,"o":"m 292 393 l 292 168 l 810 168 l 810 0 l 81 0 l 81 924 l 806 924 l 806 757 l 292 757 l 292 550 l 764 550 l 764 393 l 292 393 m 593 1176 l 633 1047 l 260 1001 l 242 1056 l 593 1176 z "},"Ě":{"ha":879,"x_min":81,"x_max":810,"o":"m 292 393 l 292 168 l 810 168 l 810 0 l 81 0 l 81 924 l 806 924 l 806 757 l 292 757 l 292 550 l 764 550 l 764 393 l 292 393 m 382 1003 l 214 1106 l 282 1181 l 438 1083 l 593 1181 l 661 1106 l 493 1003 l 382 1003 z "},"Ê":{"ha":879,"x_min":81,"x_max":810,"o":"m 292 393 l 292 168 l 810 168 l 810 0 l 81 0 l 81 924 l 806 924 l 806 757 l 292 757 l 292 550 l 764 550 l 764 393 l 292 393 m 282 1010 l 214 1085 l 382 1188 l 493 1188 l 661 1085 l 593 1010 l 438 1107 l 282 1010 z "},"Ë":{"ha":879,"x_min":81,"x_max":810,"o":"m 292 393 l 292 168 l 810 168 l 810 0 l 81 0 l 81 924 l 806 924 l 806 757 l 292 757 l 292 550 l 764 550 l 764 393 l 292 393 m 393 1015 l 204 1015 l 204 1153 l 393 1153 l 393 1015 m 669 1015 l 481 1015 l 481 1153 l 669 1153 l 669 1015 z "},"Ė":{"ha":879,"x_min":81,"x_max":810,"o":"m 292 393 l 292 168 l 810 168 l 810 0 l 81 0 l 81 924 l 806 924 l 806 757 l 292 757 l 292 550 l 764 550 l 764 393 l 292 393 m 550 1015 l 326 1015 l 326 1153 l 550 1153 l 550 1015 z "},"È":{"ha":879,"x_min":81,"x_max":810,"o":"m 292 393 l 292 168 l 810 168 l 810 0 l 81 0 l 81 924 l 806 924 l 806 757 l 292 757 l 292 550 l 764 550 l 764 393 l 292 393 m 617 1001 l 242 1047 l 282 1176 l 633 1056 l 617 1001 z "},"Ē":{"ha":879,"x_min":81,"x_max":810,"o":"m 292 393 l 292 168 l 810 168 l 810 0 l 81 0 l 81 924 l 806 924 l 806 757 l 292 757 l 292 550 l 764 550 l 764 393 l 292 393 m 167 1029 l 167 1157 l 707 1157 l 707 1029 l 167 1029 z "},"Ę":{"ha":879,"x_min":81,"x_max":810,"o":"m 810 0 l 654 0 q 643 -51 643 -26 q 668 -111 643 -90 q 728 -132 693 -132 q 800 -122 769 -132 l 801 -249 q 711 -265 768 -265 q 568 -219 622 -265 q 514 -96 514 -174 q 539 0 514 -44 l 81 0 l 81 924 l 806 924 l 806 757 l 292 757 l 292 550 l 764 550 l 764 393 l 292 393 l 292 168 l 810 168 l 810 0 z "},"F":{"ha":860,"x_min":81,"x_max":801,"o":"m 801 924 l 801 757 l 292 757 l 292 533 l 754 533 l 754 376 l 292 376 l 292 0 l 81 0 l 81 924 l 801 924 z "},"G":{"ha":1099,"x_min":63,"x_max":1014,"o":"m 503 -24 q 257 40 356 -24 q 110 214 158 104 q 63 463 63 324 q 115 712 63 603 q 280 884 168 821 q 560 947 392 947 q 890 857 781 947 q 1014 611 1000 767 l 800 611 q 731 738 790 693 q 558 782 671 782 q 351 703 419 782 q 283 461 283 625 q 347 222 283 301 q 549 143 411 143 q 737 200 676 143 q 811 354 797 257 l 482 354 l 482 492 l 1013 492 l 1013 0 l 832 0 l 832 178 q 721 32 801 88 q 503 -24 640 -24 z "},"Ğ":{"ha":1099,"x_min":63,"x_max":1014,"o":"m 503 -24 q 257 40 356 -24 q 110 214 158 104 q 63 463 63 324 q 115 712 63 603 q 280 884 168 821 q 560 947 392 947 q 890 857 781 947 q 1014 611 1000 767 l 800 611 q 731 738 790 693 q 558 782 671 782 q 351 703 419 782 q 283 461 283 625 q 347 222 283 301 q 549 143 411 143 q 737 200 676 143 q 811 354 797 257 l 482 354 l 482 492 l 1013 492 l 1013 0 l 832 0 l 832 178 q 721 32 801 88 q 503 -24 640 -24 m 458 1157 q 484 1108 461 1126 q 547 1090 507 1090 q 610 1108 588 1090 q 636 1157 633 1126 l 751 1157 q 700 1051 747 1096 q 547 1007 653 1007 q 394 1051 442 1007 q 343 1157 347 1096 l 458 1157 z "},"Ģ":{"ha":1099,"x_min":63,"x_max":1014,"o":"m 503 -24 q 257 40 356 -24 q 110 214 158 104 q 63 463 63 324 q 115 712 63 603 q 280 884 168 821 q 560 947 392 947 q 890 857 781 947 q 1014 611 1000 767 l 800 611 q 731 738 790 693 q 558 782 671 782 q 351 703 419 782 q 283 461 283 625 q 347 222 283 301 q 549 143 411 143 q 737 200 676 143 q 811 354 797 257 l 482 354 l 482 492 l 1013 492 l 1013 0 l 832 0 l 832 178 q 721 32 801 88 q 503 -24 640 -24 z "},"Ġ":{"ha":1099,"x_min":63,"x_max":1014,"o":"m 503 -24 q 257 40 356 -24 q 110 214 158 104 q 63 463 63 324 q 115 712 63 603 q 280 884 168 821 q 560 947 392 947 q 890 857 781 947 q 1014 611 1000 767 l 800 611 q 731 738 790 693 q 558 782 671 782 q 351 703 419 782 q 283 461 283 625 q 347 222 283 301 q 549 143 411 143 q 737 200 676 143 q 811 354 797 257 l 482 354 l 482 492 l 1013 492 l 1013 0 l 832 0 l 832 178 q 721 32 801 88 q 503 -24 640 -24 m 658 1015 l 435 1015 l 435 1153 l 658 1153 l 658 1015 z "},"H":{"ha":1004,"x_min":81,"x_max":925,"o":"m 714 554 l 714 924 l 925 924 l 925 0 l 714 0 l 714 389 l 290 389 l 290 0 l 81 0 l 81 924 l 290 924 l 290 554 l 714 554 z "},"Ħ":{"ha":1189,"x_min":39,"x_max":1151,"o":"m 1006 821 l 1151 821 l 1151 675 l 1006 675 l 1006 0 l 794 0 l 794 389 l 371 389 l 371 0 l 161 0 l 161 675 l 39 675 l 39 821 l 161 821 l 161 924 l 371 924 l 371 821 l 794 821 l 794 924 l 1006 924 l 1006 821 m 371 554 l 794 554 l 794 675 l 371 675 l 371 554 z "},"I":{"ha":714,"x_min":81,"x_max":633,"o":"m 633 924 l 633 757 l 463 757 l 463 168 l 633 168 l 633 0 l 81 0 l 81 168 l 251 168 l 251 757 l 81 757 l 81 924 l 633 924 z "},"Í":{"ha":714,"x_min":81,"x_max":633,"o":"m 633 924 l 633 757 l 463 757 l 463 168 l 633 168 l 633 0 l 81 0 l 81 168 l 251 168 l 251 757 l 81 757 l 81 924 l 633 924 m 513 1176 l 553 1047 l 179 1001 l 161 1056 l 513 1176 z "},"Ǐ":{"ha":714,"x_min":81,"x_max":633,"o":"m 633 924 l 633 757 l 463 757 l 463 168 l 633 168 l 633 0 l 81 0 l 81 168 l 251 168 l 251 757 l 81 757 l 81 924 l 633 924 m 301 1003 l 133 1106 l 201 1181 l 357 1083 l 513 1181 l 581 1106 l 413 1003 l 301 1003 z "},"Î":{"ha":714,"x_min":81,"x_max":633,"o":"m 633 924 l 633 757 l 463 757 l 463 168 l 633 168 l 633 0 l 81 0 l 81 168 l 251 168 l 251 757 l 81 757 l 81 924 l 633 924 m 201 1010 l 133 1085 l 301 1188 l 413 1188 l 581 1085 l 513 1010 l 357 1107 l 201 1010 z "},"Ï":{"ha":714,"x_min":81,"x_max":633,"o":"m 633 924 l 633 757 l 463 757 l 463 168 l 633 168 l 633 0 l 81 0 l 81 168 l 251 168 l 251 757 l 81 757 l 81 924 l 633 924 m 313 1015 l 124 1015 l 124 1153 l 313 1153 l 313 1015 m 589 1015 l 400 1015 l 400 1153 l 589 1153 l 589 1015 z "},"İ":{"ha":714,"x_min":81,"x_max":633,"o":"m 633 924 l 633 757 l 463 757 l 463 168 l 633 168 l 633 0 l 81 0 l 81 168 l 251 168 l 251 757 l 81 757 l 81 924 l 633 924 m 469 1015 l 246 1015 l 246 1153 l 469 1153 l 469 1015 z "},"Ì":{"ha":714,"x_min":81,"x_max":633,"o":"m 633 924 l 633 757 l 463 757 l 463 168 l 633 168 l 633 0 l 81 0 l 81 168 l 251 168 l 251 757 l 81 757 l 81 924 l 633 924 m 536 1001 l 161 1047 l 201 1176 l 553 1056 l 536 1001 z "},"Ī":{"ha":714,"x_min":81,"x_max":633,"o":"m 633 924 l 633 757 l 463 757 l 463 168 l 633 168 l 633 0 l 81 0 l 81 168 l 251 168 l 251 757 l 81 757 l 81 924 l 633 924 m 86 1029 l 86 1157 l 626 1157 l 626 1029 l 86 1029 z "},"Į":{"ha":714,"x_min":81,"x_max":643,"o":"m 643 -249 q 553 -265 610 -265 q 410 -219 464 -265 q 356 -96 356 -174 q 381 0 356 -44 l 81 0 l 81 168 l 251 168 l 251 757 l 81 757 l 81 924 l 633 924 l 633 757 l 463 757 l 463 168 l 633 168 l 633 0 l 496 0 q 485 -51 485 -26 q 510 -111 485 -90 q 569 -132 535 -132 q 642 -122 611 -132 l 643 -249 z "},"J":{"ha":632,"x_min":47,"x_max":558,"o":"m 47 0 l 47 168 l 347 168 l 347 924 l 558 924 l 558 292 q 529 123 558 186 q 435 30 500 60 q 261 0 371 0 l 47 0 z "},"K":{"ha":986,"x_min":81,"x_max":944,"o":"m 938 924 l 581 533 l 944 11 l 944 0 l 692 0 l 439 379 l 292 218 l 292 0 l 81 0 l 81 924 l 292 924 l 292 489 l 663 924 l 938 924 z "},"Ķ":{"ha":986,"x_min":81,"x_max":944,"o":"m 938 924 l 581 533 l 944 11 l 944 0 l 692 0 l 439 379 l 292 218 l 292 0 l 81 0 l 81 924 l 292 924 l 292 489 l 663 924 l 938 924 z "},"L":{"ha":751,"x_min":81,"x_max":725,"o":"m 293 924 l 293 168 l 725 168 l 725 0 l 81 0 l 81 924 l 293 924 z "},"Ĺ":{"ha":751,"x_min":-10,"x_max":725,"o":"m 293 924 l 293 168 l 725 168 l 725 0 l 81 0 l 81 924 l 293 924 m 342 1176 l 382 1047 l 8 1001 l -10 1056 l 342 1176 z "},"Ľ":{"ha":751,"x_min":81,"x_max":725,"o":"m 293 924 l 293 168 l 725 168 l 725 0 l 81 0 l 81 924 l 293 924 m 433 774 l 415 1132 l 592 1132 l 574 774 l 433 774 z "},"Ļ":{"ha":751,"x_min":81,"x_max":725,"o":"m 293 924 l 293 168 l 725 168 l 725 0 l 81 0 l 81 924 l 293 924 z "},"Ł":{"ha":863,"x_min":39,"x_max":836,"o":"m 403 431 l 403 168 l 836 168 l 836 0 l 190 0 l 190 347 l 39 289 l 39 449 l 190 508 l 190 924 l 403 924 l 403 592 l 646 686 l 646 525 l 403 431 z "},"M":{"ha":1313,"x_min":81,"x_max":1233,"o":"m 1233 924 l 1233 0 l 1022 0 l 1022 785 l 779 0 l 535 0 l 290 789 l 290 0 l 81 0 l 81 924 l 443 924 l 660 208 l 876 924 l 1233 924 z "},"N":{"ha":1056,"x_min":81,"x_max":975,"o":"m 772 924 l 975 924 l 975 0 l 625 0 l 336 631 q 283 772 303 706 l 283 0 l 81 0 l 81 924 l 431 924 l 722 283 q 772 150 750 218 l 772 924 z "},"Ń":{"ha":1056,"x_min":81,"x_max":975,"o":"m 772 924 l 975 924 l 975 0 l 625 0 l 336 631 q 283 772 303 706 l 283 0 l 81 0 l 81 924 l 431 924 l 722 283 q 772 150 750 218 l 772 924 m 683 1176 l 724 1047 l 350 1001 l 332 1056 l 683 1176 z "},"Ň":{"ha":1056,"x_min":81,"x_max":975,"o":"m 772 924 l 975 924 l 975 0 l 625 0 l 336 631 q 283 772 303 706 l 283 0 l 81 0 l 81 924 l 431 924 l 722 283 q 772 150 750 218 l 772 924 m 472 1003 l 304 1106 l 372 1181 l 528 1083 l 683 1181 l 751 1106 l 583 1003 l 472 1003 z "},"Ņ":{"ha":1056,"x_min":81,"x_max":975,"o":"m 772 924 l 975 924 l 975 0 l 625 0 l 336 631 q 283 772 303 706 l 283 0 l 81 0 l 81 924 l 431 924 l 722 283 q 772 150 750 218 l 772 924 z "},"Ŋ":{"ha":1056,"x_min":81,"x_max":975,"o":"m 772 924 l 975 924 l 975 -49 q 919 -238 975 -178 q 719 -299 863 -299 l 589 -299 l 589 -136 l 772 -136 l 772 0 l 625 0 l 336 631 q 283 772 303 706 l 283 0 l 81 0 l 81 924 l 431 924 l 722 283 q 772 150 750 218 l 772 924 z "},"Ñ":{"ha":1056,"x_min":81,"x_max":975,"o":"m 772 924 l 975 924 l 975 0 l 625 0 l 336 631 q 283 772 303 706 l 283 0 l 81 0 l 81 924 l 431 924 l 722 283 q 772 150 750 218 l 772 924 m 647 1013 q 584 1023 614 1013 q 514 1053 554 1033 q 442 1078 464 1078 q 408 1036 408 1078 l 408 1015 l 281 1015 l 281 1056 q 315 1142 281 1115 q 408 1169 350 1169 q 474 1159 446 1169 q 543 1129 503 1149 q 583 1110 567 1117 q 614 1104 599 1104 q 647 1146 647 1104 l 647 1167 l 775 1167 l 775 1131 q 740 1042 775 1071 q 647 1013 704 1013 z "},"O":{"ha":1099,"x_min":63,"x_max":1036,"o":"m 550 -24 q 272 42 381 -24 q 113 217 163 107 q 63 461 63 326 q 113 704 63 594 q 272 881 163 814 q 550 947 381 947 q 827 881 718 947 q 986 704 936 814 q 1036 461 1036 594 q 986 217 1036 326 q 828 42 936 108 q 550 -24 719 -24 m 283 461 q 344 226 283 303 q 550 150 404 150 q 756 226 696 150 q 817 461 817 303 q 757 698 817 621 q 550 775 697 775 q 343 698 403 775 q 283 461 283 621 z "},"Ó":{"ha":1099,"x_min":63,"x_max":1036,"o":"m 550 -24 q 272 42 381 -24 q 113 217 163 107 q 63 461 63 326 q 113 704 63 594 q 272 881 163 814 q 550 947 381 947 q 827 881 718 947 q 986 704 936 814 q 1036 461 1036 594 q 986 217 1036 326 q 828 42 936 108 q 550 -24 719 -24 m 283 461 q 344 226 283 303 q 550 150 404 150 q 756 226 696 150 q 817 461 817 303 q 757 698 817 621 q 550 775 697 775 q 343 698 403 775 q 283 461 283 621 m 706 1176 l 746 1047 l 372 1001 l 354 1056 l 706 1176 z "},"Ǒ":{"ha":1099,"x_min":63,"x_max":1036,"o":"m 550 -24 q 272 42 381 -24 q 113 217 163 107 q 63 461 63 326 q 113 704 63 594 q 272 881 163 814 q 550 947 381 947 q 827 881 718 947 q 986 704 936 814 q 1036 461 1036 594 q 986 217 1036 326 q 828 42 936 108 q 550 -24 719 -24 m 283 461 q 344 226 283 303 q 550 150 404 150 q 756 226 696 150 q 817 461 817 303 q 757 698 817 621 q 550 775 697 775 q 343 698 403 775 q 283 461 283 621 m 494 1003 l 326 1106 l 394 1181 l 550 1083 l 706 1181 l 774 1106 l 606 1003 l 494 1003 z "},"Ô":{"ha":1099,"x_min":63,"x_max":1036,"o":"m 550 -24 q 272 42 381 -24 q 113 217 163 107 q 63 461 63 326 q 113 704 63 594 q 272 881 163 814 q 550 947 381 947 q 827 881 718 947 q 986 704 936 814 q 1036 461 1036 594 q 986 217 1036 326 q 828 42 936 108 q 550 -24 719 -24 m 283 461 q 344 226 283 303 q 550 150 404 150 q 756 226 696 150 q 817 461 817 303 q 757 698 817 621 q 550 775 697 775 q 343 698 403 775 q 283 461 283 621 m 394 1010 l 326 1085 l 494 1188 l 606 1188 l 774 1085 l 706 1010 l 550 1107 l 394 1010 z "},"Ö":{"ha":1099,"x_min":63,"x_max":1036,"o":"m 550 -24 q 272 42 381 -24 q 113 217 163 107 q 63 461 63 326 q 113 704 63 594 q 272 881 163 814 q 550 947 381 947 q 827 881 718 947 q 986 704 936 814 q 1036 461 1036 594 q 986 217 1036 326 q 828 42 936 108 q 550 -24 719 -24 m 283 461 q 344 226 283 303 q 550 150 404 150 q 756 226 696 150 q 817 461 817 303 q 757 698 817 621 q 550 775 697 775 q 343 698 403 775 q 283 461 283 621 m 506 1015 l 317 1015 l 317 1153 l 506 1153 l 506 1015 m 782 1015 l 593 1015 l 593 1153 l 782 1153 l 782 1015 z "},"Ò":{"ha":1099,"x_min":63,"x_max":1036,"o":"m 550 -24 q 272 42 381 -24 q 113 217 163 107 q 63 461 63 326 q 113 704 63 594 q 272 881 163 814 q 550 947 381 947 q 827 881 718 947 q 986 704 936 814 q 1036 461 1036 594 q 986 217 1036 326 q 828 42 936 108 q 550 -24 719 -24 m 283 461 q 344 226 283 303 q 550 150 404 150 q 756 226 696 150 q 817 461 817 303 q 757 698 817 621 q 550 775 697 775 q 343 698 403 775 q 283 461 283 621 m 729 1001 l 354 1047 l 394 1176 l 746 1056 l 729 1001 z "},"Ő":{"ha":1099,"x_min":63,"x_max":1036,"o":"m 550 -24 q 272 42 381 -24 q 113 217 163 107 q 63 461 63 326 q 113 704 63 594 q 272 881 163 814 q 550 947 381 947 q 827 881 718 947 q 986 704 936 814 q 1036 461 1036 594 q 986 217 1036 326 q 828 42 936 108 q 550 -24 719 -24 m 283 461 q 344 226 283 303 q 550 150 404 150 q 756 226 696 150 q 817 461 817 303 q 757 698 817 621 q 550 775 697 775 q 343 698 403 775 q 283 461 283 621 m 753 1211 l 846 1113 l 619 994 l 582 1036 l 753 1211 m 458 1206 l 551 1106 l 326 989 l 288 1029 l 458 1206 z "},"Ō":{"ha":1099,"x_min":63,"x_max":1036,"o":"m 550 -24 q 272 42 381 -24 q 113 217 163 107 q 63 461 63 326 q 113 704 63 594 q 272 881 163 814 q 550 947 381 947 q 827 881 718 947 q 986 704 936 814 q 1036 461 1036 594 q 986 217 1036 326 q 828 42 936 108 q 550 -24 719 -24 m 283 461 q 344 226 283 303 q 550 150 404 150 q 756 226 696 150 q 817 461 817 303 q 757 698 817 621 q 550 775 697 775 q 343 698 403 775 q 283 461 283 621 m 279 1029 l 279 1157 l 819 1157 l 819 1029 l 279 1029 z "},"Ø":{"ha":1099,"x_min":63,"x_max":1036,"o":"m 796 897 q 977 722 918 839 q 1036 461 1036 606 q 986 217 1036 326 q 828 42 936 108 q 550 -24 719 -24 q 436 -15 489 -24 l 342 -253 l 208 -201 l 299 28 q 120 201 178 86 q 63 461 63 315 q 113 704 63 594 q 272 881 163 814 q 550 947 381 947 q 658 939 608 947 l 726 1110 l 860 1060 l 796 897 m 283 461 q 303 303 283 367 q 368 203 322 239 l 593 774 q 550 775 579 775 q 343 698 403 775 q 283 461 283 621 m 550 150 q 756 226 696 150 q 817 461 817 303 q 796 624 817 558 q 728 726 775 689 l 501 153 q 550 150 532 150 z "},"Õ":{"ha":1099,"x_min":63,"x_max":1036,"o":"m 550 -24 q 272 42 381 -24 q 113 217 163 107 q 63 461 63 326 q 113 704 63 594 q 272 881 163 814 q 550 947 381 947 q 827 881 718 947 q 986 704 936 814 q 1036 461 1036 594 q 986 217 1036 326 q 828 42 936 108 q 550 -24 719 -24 m 283 461 q 344 226 283 303 q 550 150 404 150 q 756 226 696 150 q 817 461 817 303 q 757 698 817 621 q 550 775 697 775 q 343 698 403 775 q 283 461 283 621 m 669 1013 q 606 1023 636 1013 q 536 1053 576 1033 q 464 1078 486 1078 q 431 1036 431 1078 l 431 1015 l 303 1015 l 303 1056 q 338 1142 303 1115 q 431 1169 372 1169 q 497 1159 468 1169 q 565 1129 525 1149 q 605 1110 589 1117 q 636 1104 621 1104 q 669 1146 669 1104 l 669 1167 l 797 1167 l 797 1131 q 762 1042 797 1071 q 669 1013 726 1013 z "},"Œ":{"ha":1633,"x_min":63,"x_max":1564,"o":"m 1046 168 l 1564 168 l 1564 0 l 835 0 l 835 124 q 514 -24 740 -24 q 260 42 361 -24 q 110 218 158 108 q 63 461 63 328 q 110 703 63 593 q 260 881 158 814 q 514 947 363 947 q 835 797 740 947 l 835 924 l 1560 924 l 1560 757 l 1046 757 l 1046 550 l 1518 550 l 1518 393 l 1046 393 l 1046 168 m 550 150 q 756 226 696 150 q 817 461 817 303 q 757 698 817 621 q 550 775 697 775 q 343 698 403 775 q 283 461 283 621 q 344 226 283 303 q 550 150 404 150 z "},"P":{"ha":906,"x_min":81,"x_max":864,"o":"m 571 924 q 792 841 719 924 q 864 628 864 758 q 792 406 864 490 q 571 322 721 322 l 293 322 l 293 0 l 81 0 l 81 924 l 571 924 m 504 486 q 611 524 578 486 q 644 626 644 561 q 506 760 644 760 l 293 760 l 293 486 l 504 486 z "},"Þ":{"ha":906,"x_min":81,"x_max":864,"o":"m 571 763 q 792 680 719 763 q 864 467 864 597 q 792 245 864 329 q 571 161 721 161 l 293 161 l 293 0 l 81 0 l 81 924 l 293 924 l 293 763 l 571 763 m 504 325 q 611 363 578 325 q 644 465 644 400 q 506 599 644 599 l 293 599 l 293 325 l 504 325 z "},"Q":{"ha":1113,"x_min":63,"x_max":1060,"o":"m 63 467 q 111 708 63 600 q 269 882 160 817 q 549 947 378 947 q 826 884 717 947 q 983 722 935 821 q 1032 510 1032 622 q 978 292 1032 382 q 824 160 924 203 l 1060 160 l 1060 0 l 549 0 q 179 129 296 0 q 63 467 63 258 m 283 474 q 342 247 283 322 q 549 172 400 172 q 756 247 697 172 q 814 474 814 322 q 756 701 814 626 q 549 775 697 775 q 342 701 400 775 q 283 474 283 626 z "},"R":{"ha":938,"x_min":81,"x_max":874,"o":"m 849 163 q 853 76 849 111 q 867 0 857 42 l 656 0 q 638 160 638 54 l 638 208 q 597 320 638 283 q 483 357 556 357 l 293 357 l 293 0 l 81 0 l 81 924 l 568 924 q 795 856 717 924 q 874 671 874 788 q 819 512 874 576 q 681 429 765 447 q 805 364 761 410 q 849 225 849 318 l 849 163 m 521 508 q 622 541 590 508 q 653 640 653 574 q 521 760 653 760 l 293 760 l 293 508 l 521 508 z "},"Ŕ":{"ha":938,"x_min":81,"x_max":874,"o":"m 849 163 q 853 76 849 111 q 867 0 857 42 l 656 0 q 638 160 638 54 l 638 208 q 597 320 638 283 q 483 357 556 357 l 293 357 l 293 0 l 81 0 l 81 924 l 568 924 q 795 856 717 924 q 874 671 874 788 q 819 512 874 576 q 681 429 765 447 q 805 364 761 410 q 849 225 849 318 l 849 163 m 521 508 q 622 541 590 508 q 653 640 653 574 q 521 760 653 760 l 293 760 l 293 508 l 521 508 m 624 1176 l 664 1047 l 290 1001 l 272 1056 l 624 1176 z "},"Ř":{"ha":938,"x_min":81,"x_max":874,"o":"m 849 163 q 853 76 849 111 q 867 0 857 42 l 656 0 q 638 160 638 54 l 638 208 q 597 320 638 283 q 483 357 556 357 l 293 357 l 293 0 l 81 0 l 81 924 l 568 924 q 795 856 717 924 q 874 671 874 788 q 819 512 874 576 q 681 429 765 447 q 805 364 761 410 q 849 225 849 318 l 849 163 m 521 508 q 622 541 590 508 q 653 640 653 574 q 521 760 653 760 l 293 760 l 293 508 l 521 508 m 413 1003 l 244 1106 l 313 1181 l 468 1083 l 624 1181 l 692 1106 l 524 1003 l 413 1003 z "},"Ŗ":{"ha":938,"x_min":81,"x_max":874,"o":"m 849 163 q 853 76 849 111 q 867 0 857 42 l 656 0 q 638 160 638 54 l 638 208 q 597 320 638 283 q 483 357 556 357 l 293 357 l 293 0 l 81 0 l 81 924 l 568 924 q 795 856 717 924 q 874 671 874 788 q 819 512 874 576 q 681 429 765 447 q 805 364 761 410 q 849 225 849 318 l 849 163 m 521 508 q 622 541 590 508 q 653 640 653 574 q 521 760 653 760 l 293 760 l 293 508 l 521 508 z "},"S":{"ha":928,"x_min":54,"x_max":871,"o":"m 260 304 q 316 179 264 225 q 472 133 368 133 q 615 165 572 133 q 658 256 658 197 q 628 335 658 307 q 535 372 597 364 l 331 399 q 141 481 207 414 q 75 661 75 547 q 173 869 75 792 q 460 947 271 947 q 754 865 656 947 q 861 650 853 783 l 654 650 q 597 754 646 717 q 460 792 549 792 q 332 760 376 792 q 288 674 288 729 q 314 603 288 631 q 396 571 340 576 l 589 547 q 871 276 871 515 q 469 -24 871 -24 q 159 69 258 -24 q 54 304 60 163 l 260 304 z "},"Ś":{"ha":928,"x_min":54,"x_max":871,"o":"m 260 304 q 316 179 264 225 q 472 133 368 133 q 615 165 572 133 q 658 256 658 197 q 628 335 658 307 q 535 372 597 364 l 331 399 q 141 481 207 414 q 75 661 75 547 q 173 869 75 792 q 460 947 271 947 q 754 865 656 947 q 861 650 853 783 l 654 650 q 597 754 646 717 q 460 792 549 792 q 332 760 376 792 q 288 674 288 729 q 314 603 288 631 q 396 571 340 576 l 589 547 q 871 276 871 515 q 469 -24 871 -24 q 159 69 258 -24 q 54 304 60 163 l 260 304 m 619 1176 l 660 1047 l 286 1001 l 268 1056 l 619 1176 z "},"Š":{"ha":928,"x_min":54,"x_max":871,"o":"m 260 304 q 316 179 264 225 q 472 133 368 133 q 615 165 572 133 q 658 256 658 197 q 628 335 658 307 q 535 372 597 364 l 331 399 q 141 481 207 414 q 75 661 75 547 q 173 869 75 792 q 460 947 271 947 q 754 865 656 947 q 861 650 853 783 l 654 650 q 597 754 646 717 q 460 792 549 792 q 332 760 376 792 q 288 674 288 729 q 314 603 288 631 q 396 571 340 576 l 589 547 q 871 276 871 515 q 469 -24 871 -24 q 159 69 258 -24 q 54 304 60 163 l 260 304 m 408 1003 l 240 1106 l 308 1181 l 464 1083 l 619 1181 l 688 1106 l 519 1003 l 408 1003 z "},"Ş":{"ha":928,"x_min":54,"x_max":871,"o":"m 871 276 q 564 -19 871 15 l 588 -124 q 592 -158 592 -143 q 564 -228 592 -203 q 486 -254 536 -254 l 338 -254 l 338 -126 l 446 -126 l 421 -22 q 147 80 235 -11 q 54 304 60 171 l 260 304 q 316 179 264 225 q 472 133 368 133 q 615 165 572 133 q 658 256 658 197 q 628 335 658 307 q 535 372 597 364 l 331 399 q 141 481 207 414 q 75 661 75 547 q 173 869 75 792 q 460 947 271 947 q 754 865 656 947 q 861 650 853 783 l 654 650 q 597 754 646 717 q 460 792 549 792 q 332 760 376 792 q 288 674 288 729 q 314 603 288 631 q 396 571 340 576 l 589 547 q 871 276 871 515 z "},"Ș":{"ha":928,"x_min":54,"x_max":871,"o":"m 260 304 q 316 179 264 225 q 472 133 368 133 q 615 165 572 133 q 658 256 658 197 q 628 335 658 307 q 535 372 597 364 l 331 399 q 141 481 207 414 q 75 661 75 547 q 173 869 75 792 q 460 947 271 947 q 754 865 656 947 q 861 650 853 783 l 654 650 q 597 754 646 717 q 460 792 549 792 q 332 760 376 792 q 288 674 288 729 q 314 603 288 631 q 396 571 340 576 l 589 547 q 871 276 871 515 q 469 -24 871 -24 q 159 69 258 -24 q 54 304 60 163 l 260 304 z "},"T":{"ha":911,"x_min":46,"x_max":865,"o":"m 46 924 l 865 924 l 865 757 l 561 757 l 561 0 l 350 0 l 350 757 l 46 757 l 46 924 z "},"Ŧ":{"ha":911,"x_min":46,"x_max":865,"o":"m 865 924 l 865 757 l 561 757 l 561 524 l 865 524 l 865 356 l 561 356 l 561 0 l 350 0 l 350 356 l 46 356 l 46 524 l 350 524 l 350 757 l 46 757 l 46 924 l 865 924 z "},"Ť":{"ha":911,"x_min":46,"x_max":865,"o":"m 46 924 l 865 924 l 865 757 l 561 757 l 561 0 l 350 0 l 350 757 l 46 757 l 46 924 m 400 1003 l 232 1106 l 300 1181 l 456 1083 l 611 1181 l 679 1106 l 511 1003 l 400 1003 z "},"Ţ":{"ha":911,"x_min":46,"x_max":865,"o":"m 561 757 l 561 0 l 543 0 l 571 -121 q 575 -156 575 -140 q 547 -226 575 -200 q 469 -251 519 -251 l 321 -251 l 321 -124 l 429 -124 l 400 0 l 350 0 l 350 757 l 46 757 l 46 924 l 865 924 l 865 757 l 561 757 z "},"Ț":{"ha":911,"x_min":46,"x_max":865,"o":"m 46 924 l 865 924 l 865 757 l 561 757 l 561 0 l 350 0 l 350 757 l 46 757 l 46 924 z "},"U":{"ha":982,"x_min":76,"x_max":906,"o":"m 76 924 l 288 924 l 288 375 q 310 238 288 288 q 376 169 332 189 q 492 150 419 150 q 608 169 564 150 q 674 238 651 189 q 696 375 696 288 l 696 924 l 906 924 l 906 346 q 801 72 906 165 q 492 -22 697 -22 q 181 71 285 -22 q 76 346 76 164 l 76 924 z "},"Ú":{"ha":982,"x_min":76,"x_max":906,"o":"m 76 924 l 288 924 l 288 375 q 310 238 288 288 q 376 169 332 189 q 492 150 419 150 q 608 169 564 150 q 674 238 651 189 q 696 375 696 288 l 696 924 l 906 924 l 906 346 q 801 72 906 165 q 492 -22 697 -22 q 181 71 285 -22 q 76 346 76 164 l 76 924 m 647 1176 l 688 1047 l 314 1001 l 296 1056 l 647 1176 z "},"Ǔ":{"ha":982,"x_min":76,"x_max":906,"o":"m 76 924 l 288 924 l 288 375 q 310 238 288 288 q 376 169 332 189 q 492 150 419 150 q 608 169 564 150 q 674 238 651 189 q 696 375 696 288 l 696 924 l 906 924 l 906 346 q 801 72 906 165 q 492 -22 697 -22 q 181 71 285 -22 q 76 346 76 164 l 76 924 m 436 1003 l 268 1106 l 336 1181 l 492 1083 l 647 1181 l 715 1106 l 547 1003 l 436 1003 z "},"Û":{"ha":982,"x_min":76,"x_max":906,"o":"m 76 924 l 288 924 l 288 375 q 310 238 288 288 q 376 169 332 189 q 492 150 419 150 q 608 169 564 150 q 674 238 651 189 q 696 375 696 288 l 696 924 l 906 924 l 906 346 q 801 72 906 165 q 492 -22 697 -22 q 181 71 285 -22 q 76 346 76 164 l 76 924 m 336 1010 l 268 1085 l 436 1188 l 547 1188 l 715 1085 l 647 1010 l 492 1107 l 336 1010 z "},"Ü":{"ha":982,"x_min":76,"x_max":906,"o":"m 76 924 l 288 924 l 288 375 q 310 238 288 288 q 376 169 332 189 q 492 150 419 150 q 608 169 564 150 q 674 238 651 189 q 696 375 696 288 l 696 924 l 906 924 l 906 346 q 801 72 906 165 q 492 -22 697 -22 q 181 71 285 -22 q 76 346 76 164 l 76 924 m 447 1015 l 258 1015 l 258 1153 l 447 1153 l 447 1015 m 724 1015 l 535 1015 l 535 1153 l 724 1153 l 724 1015 z "},"Ǘ":{"ha":982,"x_min":76,"x_max":906,"o":"m 76 924 l 288 924 l 288 375 q 310 238 288 288 q 376 169 332 189 q 492 150 419 150 q 608 169 564 150 q 674 238 651 189 q 696 375 696 288 l 696 924 l 906 924 l 906 346 q 801 72 906 165 q 492 -22 697 -22 q 181 71 285 -22 q 76 346 76 164 l 76 924 m 447 1015 l 258 1015 l 258 1153 l 447 1153 l 447 1015 m 724 1015 l 535 1015 l 535 1153 l 724 1153 l 724 1015 m 647 1406 l 688 1276 l 314 1231 l 296 1285 l 647 1406 z "},"Ǚ":{"ha":982,"x_min":76,"x_max":906,"o":"m 76 924 l 288 924 l 288 375 q 310 238 288 288 q 376 169 332 189 q 492 150 419 150 q 608 169 564 150 q 674 238 651 189 q 696 375 696 288 l 696 924 l 906 924 l 906 346 q 801 72 906 165 q 492 -22 697 -22 q 181 71 285 -22 q 76 346 76 164 l 76 924 m 447 1015 l 258 1015 l 258 1153 l 447 1153 l 447 1015 m 724 1015 l 535 1015 l 535 1153 l 724 1153 l 724 1015 m 436 1232 l 268 1335 l 336 1410 l 492 1313 l 647 1410 l 715 1335 l 547 1232 l 436 1232 z "},"Ǜ":{"ha":982,"x_min":76,"x_max":906,"o":"m 76 924 l 288 924 l 288 375 q 310 238 288 288 q 376 169 332 189 q 492 150 419 150 q 608 169 564 150 q 674 238 651 189 q 696 375 696 288 l 696 924 l 906 924 l 906 346 q 801 72 906 165 q 492 -22 697 -22 q 181 71 285 -22 q 76 346 76 164 l 76 924 m 447 1015 l 258 1015 l 258 1153 l 447 1153 l 447 1015 m 724 1015 l 535 1015 l 535 1153 l 724 1153 l 724 1015 m 671 1231 l 296 1276 l 336 1406 l 688 1285 l 671 1231 z "},"Ǖ":{"ha":982,"x_min":76,"x_max":906,"o":"m 76 924 l 288 924 l 288 375 q 310 238 288 288 q 376 169 332 189 q 492 150 419 150 q 608 169 564 150 q 674 238 651 189 q 696 375 696 288 l 696 924 l 906 924 l 906 346 q 801 72 906 165 q 492 -22 697 -22 q 181 71 285 -22 q 76 346 76 164 l 76 924 m 447 1015 l 258 1015 l 258 1153 l 447 1153 l 447 1015 m 724 1015 l 535 1015 l 535 1153 l 724 1153 l 724 1015 m 221 1258 l 221 1386 l 761 1386 l 761 1258 l 221 1258 z "},"Ù":{"ha":982,"x_min":76,"x_max":906,"o":"m 76 924 l 288 924 l 288 375 q 310 238 288 288 q 376 169 332 189 q 492 150 419 150 q 608 169 564 150 q 674 238 651 189 q 696 375 696 288 l 696 924 l 906 924 l 906 346 q 801 72 906 165 q 492 -22 697 -22 q 181 71 285 -22 q 76 346 76 164 l 76 924 m 671 1001 l 296 1047 l 336 1176 l 688 1056 l 671 1001 z "},"Ű":{"ha":982,"x_min":76,"x_max":906,"o":"m 76 924 l 288 924 l 288 375 q 310 238 288 288 q 376 169 332 189 q 492 150 419 150 q 608 169 564 150 q 674 238 651 189 q 696 375 696 288 l 696 924 l 906 924 l 906 346 q 801 72 906 165 q 492 -22 697 -22 q 181 71 285 -22 q 76 346 76 164 l 76 924 m 694 1211 l 788 1113 l 561 994 l 524 1036 l 694 1211 m 400 1206 l 493 1106 l 268 989 l 229 1029 l 400 1206 z "},"Ū":{"ha":982,"x_min":76,"x_max":906,"o":"m 76 924 l 288 924 l 288 375 q 310 238 288 288 q 376 169 332 189 q 492 150 419 150 q 608 169 564 150 q 674 238 651 189 q 696 375 696 288 l 696 924 l 906 924 l 906 346 q 801 72 906 165 q 492 -22 697 -22 q 181 71 285 -22 q 76 346 76 164 l 76 924 m 221 1029 l 221 1157 l 761 1157 l 761 1029 l 221 1029 z "},"Ų":{"ha":982,"x_min":76,"x_max":906,"o":"m 906 346 q 768 46 906 136 q 728 -51 728 -1 q 753 -111 728 -90 q 813 -132 778 -132 q 885 -122 854 -132 l 886 -249 q 796 -265 853 -265 q 653 -219 707 -265 q 599 -96 599 -174 q 618 -11 599 -53 q 492 -22 556 -22 q 181 71 285 -22 q 76 346 76 164 l 76 924 l 288 924 l 288 375 q 310 238 288 288 q 376 169 332 189 q 492 150 419 150 q 608 169 564 150 q 674 238 651 189 q 696 375 696 288 l 696 924 l 906 924 l 906 346 z "},"Ů":{"ha":982,"x_min":76,"x_max":906,"o":"m 76 924 l 288 924 l 288 375 q 310 238 288 288 q 376 169 332 189 q 492 150 419 150 q 608 169 564 150 q 674 238 651 189 q 696 375 696 288 l 696 924 l 906 924 l 906 346 q 801 72 906 165 q 492 -22 697 -22 q 181 71 285 -22 q 76 346 76 164 l 76 924 m 492 975 q 385 1017 425 975 q 344 1118 344 1058 q 385 1219 344 1178 q 492 1261 425 1261 q 598 1219 558 1261 q 638 1118 638 1178 q 598 1017 638 1058 q 492 975 558 975 m 440 1118 q 455 1078 440 1093 q 492 1064 469 1064 q 528 1078 513 1064 q 543 1118 543 1093 q 528 1157 543 1143 q 492 1171 513 1171 q 455 1158 469 1171 q 440 1118 440 1144 z "},"V":{"ha":1019,"x_min":46,"x_max":975,"o":"m 763 924 l 975 924 l 665 0 l 356 0 l 46 924 l 264 924 l 468 318 q 513 165 497 228 q 557 318 538 260 l 763 924 z "},"W":{"ha":1497,"x_min":60,"x_max":1439,"o":"m 1082 124 l 1231 924 l 1439 924 l 1265 0 l 907 0 l 749 760 l 590 0 l 232 0 l 60 924 l 267 924 l 417 124 l 590 924 l 908 924 l 1082 124 z "},"Ẃ":{"ha":1497,"x_min":60,"x_max":1439,"o":"m 1082 124 l 1231 924 l 1439 924 l 1265 0 l 907 0 l 749 760 l 590 0 l 232 0 l 60 924 l 267 924 l 417 124 l 590 924 l 908 924 l 1082 124 m 904 1176 l 944 1047 l 571 1001 l 553 1056 l 904 1176 z "},"Ŵ":{"ha":1497,"x_min":60,"x_max":1439,"o":"m 1082 124 l 1231 924 l 1439 924 l 1265 0 l 907 0 l 749 760 l 590 0 l 232 0 l 60 924 l 267 924 l 417 124 l 590 924 l 908 924 l 1082 124 m 593 1010 l 525 1085 l 693 1188 l 804 1188 l 972 1085 l 904 1010 l 749 1107 l 593 1010 z "},"Ẅ":{"ha":1497,"x_min":60,"x_max":1439,"o":"m 1082 124 l 1231 924 l 1439 924 l 1265 0 l 907 0 l 749 760 l 590 0 l 232 0 l 60 924 l 267 924 l 417 124 l 590 924 l 908 924 l 1082 124 m 706 1015 l 517 1015 l 517 1153 l 706 1153 l 706 1015 m 982 1015 l 793 1015 l 793 1153 l 982 1153 l 982 1015 z "},"Ẁ":{"ha":1497,"x_min":60,"x_max":1439,"o":"m 1082 124 l 1231 924 l 1439 924 l 1265 0 l 907 0 l 749 760 l 590 0 l 232 0 l 60 924 l 267 924 l 417 124 l 590 924 l 908 924 l 1082 124 m 928 1001 l 553 1047 l 593 1176 l 944 1056 l 928 1001 z "},"X":{"ha":1065,"x_min":47,"x_max":1024,"o":"m 661 468 l 1024 0 l 761 0 l 525 307 l 304 0 l 47 0 l 403 467 l 50 924 l 308 924 l 539 625 l 756 924 l 1007 924 l 661 468 z "},"Y":{"ha":969,"x_min":32,"x_max":939,"o":"m 704 924 l 939 924 l 592 279 l 592 0 l 381 0 l 381 279 l 32 924 l 268 924 l 419 603 q 483 450 468 490 l 551 603 l 704 924 z "},"Ý":{"ha":969,"x_min":32,"x_max":939,"o":"m 704 924 l 939 924 l 592 279 l 592 0 l 381 0 l 381 279 l 32 924 l 268 924 l 419 603 q 483 450 468 490 l 551 603 l 704 924 m 642 1176 l 682 1047 l 308 1001 l 290 1056 l 642 1176 z "},"Ŷ":{"ha":969,"x_min":32,"x_max":939,"o":"m 704 924 l 939 924 l 592 279 l 592 0 l 381 0 l 381 279 l 32 924 l 268 924 l 419 603 q 483 450 468 490 l 551 603 l 704 924 m 331 1010 l 263 1085 l 431 1188 l 542 1188 l 710 1085 l 642 1010 l 486 1107 l 331 1010 z "},"Ÿ":{"ha":969,"x_min":32,"x_max":939,"o":"m 704 924 l 939 924 l 592 279 l 592 0 l 381 0 l 381 279 l 32 924 l 268 924 l 419 603 q 483 450 468 490 l 551 603 l 704 924 m 442 1015 l 253 1015 l 253 1153 l 442 1153 l 442 1015 m 718 1015 l 529 1015 l 529 1153 l 718 1153 l 718 1015 z "},"Ỳ":{"ha":969,"x_min":32,"x_max":939,"o":"m 704 924 l 939 924 l 592 279 l 592 0 l 381 0 l 381 279 l 32 924 l 268 924 l 419 603 q 483 450 468 490 l 551 603 l 704 924 m 665 1001 l 290 1047 l 331 1176 l 682 1056 l 665 1001 z "},"Z":{"ha":956,"x_min":78,"x_max":896,"o":"m 892 757 l 347 168 l 896 168 l 896 0 l 78 0 l 78 168 l 622 757 l 89 757 l 89 924 l 892 924 l 892 757 z "},"Ź":{"ha":956,"x_min":78,"x_max":896,"o":"m 892 757 l 347 168 l 896 168 l 896 0 l 78 0 l 78 168 l 622 757 l 89 757 l 89 924 l 892 924 l 892 757 m 633 1176 l 674 1047 l 300 1001 l 282 1056 l 633 1176 z "},"Ž":{"ha":956,"x_min":78,"x_max":896,"o":"m 892 757 l 347 168 l 896 168 l 896 0 l 78 0 l 78 168 l 622 757 l 89 757 l 89 924 l 892 924 l 892 757 m 422 1003 l 254 1106 l 322 1181 l 478 1083 l 633 1181 l 701 1106 l 533 1003 l 422 1003 z "},"Ż":{"ha":956,"x_min":78,"x_max":896,"o":"m 892 757 l 347 168 l 896 168 l 896 0 l 78 0 l 78 168 l 622 757 l 89 757 l 89 924 l 892 924 l 892 757 m 590 1015 l 367 1015 l 367 1153 l 590 1153 l 590 1015 z "},"a":{"ha":804,"x_min":61,"x_max":739,"o":"m 292 -18 q 124 37 186 -18 q 61 185 61 92 q 111 325 61 274 q 289 399 161 376 l 453 426 q 519 450 500 435 q 539 496 539 465 q 512 556 539 535 q 418 576 485 576 q 276 468 281 576 l 75 468 q 169 650 79 582 q 414 718 258 718 q 649 656 569 718 q 728 481 728 593 l 728 181 q 739 0 728 96 l 560 0 q 549 149 549 74 q 458 27 524 72 q 292 -18 393 -18 m 361 122 q 491 178 443 122 q 539 331 539 235 l 539 361 q 488 335 514 344 q 425 317 463 325 l 367 303 q 288 267 311 289 q 264 206 264 244 q 291 144 264 165 q 361 122 318 122 z "},"á":{"ha":804,"x_min":61,"x_max":739,"o":"m 292 -18 q 124 37 186 -18 q 61 185 61 92 q 111 325 61 274 q 289 399 161 376 l 453 426 q 519 450 500 435 q 539 496 539 465 q 512 556 539 535 q 418 576 485 576 q 276 468 281 576 l 75 468 q 169 650 79 582 q 414 718 258 718 q 649 656 569 718 q 728 481 728 593 l 728 181 q 739 0 728 96 l 560 0 q 549 149 549 74 q 458 27 524 72 q 292 -18 393 -18 m 361 122 q 491 178 443 122 q 539 331 539 235 l 539 361 q 488 335 514 344 q 425 317 463 325 l 367 303 q 288 267 311 289 q 264 206 264 244 q 291 144 264 165 q 361 122 318 122 m 563 947 l 603 817 l 228 772 l 211 826 l 563 947 z "},"ă":{"ha":804,"x_min":61,"x_max":739,"o":"m 292 -18 q 124 37 186 -18 q 61 185 61 92 q 111 325 61 274 q 289 399 161 376 l 453 426 q 519 450 500 435 q 539 496 539 465 q 512 556 539 535 q 418 576 485 576 q 276 468 281 576 l 75 468 q 169 650 79 582 q 414 718 258 718 q 649 656 569 718 q 728 481 728 593 l 728 181 q 739 0 728 96 l 560 0 q 549 149 549 74 q 458 27 524 72 q 292 -18 393 -18 m 361 122 q 491 178 443 122 q 539 331 539 235 l 539 361 q 488 335 514 344 q 425 317 463 325 l 367 303 q 288 267 311 289 q 264 206 264 244 q 291 144 264 165 q 361 122 318 122 m 311 924 q 337 875 314 893 q 400 857 360 857 q 463 875 440 857 q 489 924 486 893 l 604 924 q 553 818 600 863 q 400 774 506 774 q 247 818 294 774 q 196 924 200 863 l 311 924 z "},"ǎ":{"ha":804,"x_min":61,"x_max":739,"o":"m 292 -18 q 124 37 186 -18 q 61 185 61 92 q 111 325 61 274 q 289 399 161 376 l 453 426 q 519 450 500 435 q 539 496 539 465 q 512 556 539 535 q 418 576 485 576 q 276 468 281 576 l 75 468 q 169 650 79 582 q 414 718 258 718 q 649 656 569 718 q 728 481 728 593 l 728 181 q 739 0 728 96 l 560 0 q 549 149 549 74 q 458 27 524 72 q 292 -18 393 -18 m 361 122 q 491 178 443 122 q 539 331 539 235 l 539 361 q 488 335 514 344 q 425 317 463 325 l 367 303 q 288 267 311 289 q 264 206 264 244 q 291 144 264 165 q 361 122 318 122 m 351 775 l 183 878 l 251 953 l 407 856 l 563 953 l 631 878 l 463 775 l 351 775 z "},"â":{"ha":804,"x_min":61,"x_max":739,"o":"m 292 -18 q 124 37 186 -18 q 61 185 61 92 q 111 325 61 274 q 289 399 161 376 l 453 426 q 519 450 500 435 q 539 496 539 465 q 512 556 539 535 q 418 576 485 576 q 276 468 281 576 l 75 468 q 169 650 79 582 q 414 718 258 718 q 649 656 569 718 q 728 481 728 593 l 728 181 q 739 0 728 96 l 560 0 q 549 149 549 74 q 458 27 524 72 q 292 -18 393 -18 m 361 122 q 491 178 443 122 q 539 331 539 235 l 539 361 q 488 335 514 344 q 425 317 463 325 l 367 303 q 288 267 311 289 q 264 206 264 244 q 291 144 264 165 q 361 122 318 122 m 251 757 l 183 832 l 351 935 l 463 935 l 631 832 l 563 757 l 407 853 l 251 757 z "},"ä":{"ha":804,"x_min":61,"x_max":739,"o":"m 292 -18 q 124 37 186 -18 q 61 185 61 92 q 111 325 61 274 q 289 399 161 376 l 453 426 q 519 450 500 435 q 539 496 539 465 q 512 556 539 535 q 418 576 485 576 q 276 468 281 576 l 75 468 q 169 650 79 582 q 414 718 258 718 q 649 656 569 718 q 728 481 728 593 l 728 181 q 739 0 728 96 l 560 0 q 549 149 549 74 q 458 27 524 72 q 292 -18 393 -18 m 361 122 q 491 178 443 122 q 539 331 539 235 l 539 361 q 488 335 514 344 q 425 317 463 325 l 367 303 q 288 267 311 289 q 264 206 264 244 q 291 144 264 165 q 361 122 318 122 m 353 786 l 164 786 l 164 924 l 353 924 l 353 786 m 649 786 l 460 786 l 460 924 l 649 924 l 649 786 z "},"à":{"ha":804,"x_min":61,"x_max":739,"o":"m 292 -18 q 124 37 186 -18 q 61 185 61 92 q 111 325 61 274 q 289 399 161 376 l 453 426 q 519 450 500 435 q 539 496 539 465 q 512 556 539 535 q 418 576 485 576 q 276 468 281 576 l 75 468 q 169 650 79 582 q 414 718 258 718 q 649 656 569 718 q 728 481 728 593 l 728 181 q 739 0 728 96 l 560 0 q 549 149 549 74 q 458 27 524 72 q 292 -18 393 -18 m 361 122 q 491 178 443 122 q 539 331 539 235 l 539 361 q 488 335 514 344 q 425 317 463 325 l 367 303 q 288 267 311 289 q 264 206 264 244 q 291 144 264 165 q 361 122 318 122 m 586 772 l 211 817 l 251 947 l 603 826 l 586 772 z "},"ā":{"ha":804,"x_min":61,"x_max":739,"o":"m 292 -18 q 124 37 186 -18 q 61 185 61 92 q 111 325 61 274 q 289 399 161 376 l 453 426 q 519 450 500 435 q 539 496 539 465 q 512 556 539 535 q 418 576 485 576 q 276 468 281 576 l 75 468 q 169 650 79 582 q 414 718 258 718 q 649 656 569 718 q 728 481 728 593 l 728 181 q 739 0 728 96 l 560 0 q 549 149 549 74 q 458 27 524 72 q 292 -18 393 -18 m 361 122 q 491 178 443 122 q 539 331 539 235 l 539 361 q 488 335 514 344 q 425 317 463 325 l 367 303 q 288 267 311 289 q 264 206 264 244 q 291 144 264 165 q 361 122 318 122 m 151 803 l 151 924 l 663 924 l 663 803 l 151 803 z "},"ą":{"ha":804,"x_min":61,"x_max":796,"o":"m 796 -249 q 706 -265 763 -265 q 563 -219 617 -265 q 508 -96 508 -174 q 556 32 508 -24 q 549 149 549 92 q 458 27 524 72 q 292 -18 393 -18 q 124 37 186 -18 q 61 185 61 92 q 111 325 61 274 q 289 399 161 376 l 453 426 q 519 450 500 435 q 539 496 539 465 q 512 556 539 535 q 418 576 485 576 q 276 468 281 576 l 75 468 q 169 650 79 582 q 414 718 258 718 q 649 656 569 718 q 728 481 728 593 l 728 181 q 739 0 728 96 l 649 0 q 638 -51 638 -26 q 663 -111 638 -90 q 722 -132 688 -132 q 794 -122 764 -132 l 796 -249 m 539 361 q 488 335 514 344 q 425 317 463 325 l 367 303 q 288 267 311 289 q 264 206 264 244 q 291 144 264 165 q 361 122 318 122 q 491 178 443 122 q 539 331 539 235 l 539 361 z "},"å":{"ha":804,"x_min":61,"x_max":739,"o":"m 292 -18 q 124 37 186 -18 q 61 185 61 92 q 111 325 61 274 q 289 399 161 376 l 453 426 q 519 450 500 435 q 539 496 539 465 q 512 556 539 535 q 418 576 485 576 q 276 468 281 576 l 75 468 q 169 650 79 582 q 414 718 258 718 q 649 656 569 718 q 728 481 728 593 l 728 181 q 739 0 728 96 l 560 0 q 549 149 549 74 q 458 27 524 72 q 292 -18 393 -18 m 361 122 q 491 178 443 122 q 539 331 539 235 l 539 361 q 488 335 514 344 q 425 317 463 325 l 367 303 q 288 267 311 289 q 264 206 264 244 q 291 144 264 165 q 361 122 318 122 m 407 769 q 323 802 354 769 q 292 882 292 835 q 323 960 292 928 q 407 993 354 993 q 490 960 458 993 q 521 882 521 928 q 490 802 521 835 q 407 769 460 769 m 365 882 q 377 849 365 861 q 407 838 389 838 q 435 849 424 838 q 447 882 447 861 q 435 913 447 901 q 407 924 424 924 q 377 913 389 924 q 365 882 365 901 z "},"ã":{"ha":804,"x_min":61,"x_max":739,"o":"m 292 -18 q 124 37 186 -18 q 61 185 61 92 q 111 325 61 274 q 289 399 161 376 l 453 426 q 519 450 500 435 q 539 496 539 465 q 512 556 539 535 q 418 576 485 576 q 276 468 281 576 l 75 468 q 169 650 79 582 q 414 718 258 718 q 649 656 569 718 q 728 481 728 593 l 728 181 q 739 0 728 96 l 560 0 q 549 149 549 74 q 458 27 524 72 q 292 -18 393 -18 m 361 122 q 491 178 443 122 q 539 331 539 235 l 539 361 q 488 335 514 344 q 425 317 463 325 l 367 303 q 288 267 311 289 q 264 206 264 244 q 291 144 264 165 q 361 122 318 122 m 526 776 q 463 787 493 776 q 393 817 433 797 q 321 842 343 842 q 288 800 288 842 l 288 779 l 160 779 l 160 819 q 194 906 160 879 q 288 933 229 933 q 353 923 325 933 q 422 893 382 913 q 462 874 446 881 q 493 868 478 868 q 526 910 526 868 l 526 931 l 654 931 l 654 894 q 619 806 654 835 q 526 776 583 776 z "},"æ":{"ha":1321,"x_min":61,"x_max":1272,"o":"m 917 119 q 1019 144 981 119 q 1072 210 1057 168 l 1269 210 q 1167 44 1253 111 q 911 -22 1082 -22 q 719 17 797 -22 q 597 128 640 57 q 478 21 553 60 q 313 -18 403 -18 q 133 38 204 -18 q 61 185 61 93 q 111 325 61 274 q 289 399 161 376 l 453 426 q 519 450 500 435 q 539 496 539 465 q 512 556 539 535 q 418 576 485 576 q 276 468 281 576 l 75 468 q 169 650 79 582 q 414 718 258 718 q 651 631 583 718 q 911 717 749 717 q 1184 614 1096 717 q 1272 350 1272 511 q 1268 294 1272 318 l 739 294 q 792 160 747 200 q 917 119 838 119 m 914 578 q 795 542 838 578 q 740 419 753 506 l 1076 419 q 1030 538 1069 499 q 914 578 990 578 m 539 361 q 488 335 514 344 q 425 317 463 325 l 367 303 q 288 267 311 289 q 264 206 264 244 q 291 144 264 165 q 361 122 318 122 q 491 178 443 122 q 539 331 539 235 l 539 361 z "},"b":{"ha":901,"x_min":78,"x_max":851,"o":"m 531 717 q 772 613 692 717 q 851 349 851 508 q 772 82 851 186 q 531 -22 692 -22 q 283 100 361 -22 l 283 0 l 78 0 l 78 972 l 283 972 l 283 593 q 531 717 361 717 m 468 139 q 604 188 564 139 q 644 347 644 238 q 604 506 644 457 q 468 556 564 556 q 327 505 371 556 q 283 347 283 454 q 327 190 283 240 q 468 139 371 139 z "},"c":{"ha":846,"x_min":51,"x_max":800,"o":"m 51 347 q 92 533 51 449 q 217 667 132 617 q 432 717 303 717 q 699 632 606 717 q 796 413 792 547 l 596 413 q 551 518 590 481 q 436 556 513 556 q 303 508 349 556 q 258 347 258 460 q 302 187 258 235 q 433 139 346 139 q 552 179 511 139 q 600 286 593 219 l 800 286 q 756 131 797 201 q 634 19 715 61 q 436 -22 553 -22 q 220 28 307 -22 q 92 162 133 78 q 51 347 51 246 z "},"ć":{"ha":846,"x_min":51,"x_max":800,"o":"m 51 347 q 92 533 51 449 q 217 667 132 617 q 432 717 303 717 q 699 632 606 717 q 796 413 792 547 l 596 413 q 551 518 590 481 q 436 556 513 556 q 303 508 349 556 q 258 347 258 460 q 302 187 258 235 q 433 139 346 139 q 552 179 511 139 q 600 286 593 219 l 800 286 q 756 131 797 201 q 634 19 715 61 q 436 -22 553 -22 q 220 28 307 -22 q 92 162 133 78 q 51 347 51 246 m 579 947 l 619 817 l 244 772 l 228 826 l 579 947 z "},"č":{"ha":846,"x_min":51,"x_max":800,"o":"m 51 347 q 92 533 51 449 q 217 667 132 617 q 432 717 303 717 q 699 632 606 717 q 796 413 792 547 l 596 413 q 551 518 590 481 q 436 556 513 556 q 303 508 349 556 q 258 347 258 460 q 302 187 258 235 q 433 139 346 139 q 552 179 511 139 q 600 286 593 219 l 800 286 q 756 131 797 201 q 634 19 715 61 q 436 -22 553 -22 q 220 28 307 -22 q 92 162 133 78 q 51 347 51 246 m 368 775 l 200 878 l 268 953 l 424 856 l 579 953 l 647 878 l 479 775 l 368 775 z "},"ç":{"ha":846,"x_min":51,"x_max":800,"o":"m 800 286 q 726 90 797 174 q 522 -15 656 7 l 547 -124 q 551 -158 551 -143 q 524 -228 551 -203 q 446 -254 496 -254 l 297 -254 l 297 -126 l 406 -126 l 381 -19 q 134 99 217 -4 q 51 347 51 201 q 92 533 51 449 q 217 667 132 617 q 432 717 303 717 q 699 632 606 717 q 796 413 792 547 l 596 413 q 551 518 590 481 q 436 556 513 556 q 303 508 349 556 q 258 347 258 460 q 302 187 258 235 q 433 139 346 139 q 552 179 511 139 q 600 286 593 219 l 800 286 z "},"ċ":{"ha":846,"x_min":51,"x_max":800,"o":"m 51 347 q 92 533 51 449 q 217 667 132 617 q 432 717 303 717 q 699 632 606 717 q 796 413 792 547 l 596 413 q 551 518 590 481 q 436 556 513 556 q 303 508 349 556 q 258 347 258 460 q 302 187 258 235 q 433 139 346 139 q 552 179 511 139 q 600 286 593 219 l 800 286 q 756 131 797 201 q 634 19 715 61 q 436 -22 553 -22 q 220 28 307 -22 q 92 162 133 78 q 51 347 51 246 m 536 786 l 313 786 l 313 924 l 536 924 l 536 786 z "},"d":{"ha":901,"x_min":51,"x_max":825,"o":"m 619 972 l 825 972 l 825 0 l 619 0 l 619 103 q 371 -22 543 -22 q 131 82 210 -22 q 51 349 51 186 q 131 613 51 508 q 371 717 211 717 q 619 590 542 717 l 619 972 m 435 139 q 575 190 531 139 q 619 347 619 240 q 575 505 619 454 q 435 556 531 556 q 298 506 339 556 q 257 347 257 457 q 298 188 257 238 q 435 139 339 139 z "},"ð":{"ha":871,"x_min":50,"x_max":821,"o":"m 631 933 q 775 735 729 854 q 821 435 821 615 q 727 90 821 201 q 438 -22 633 -22 q 145 81 240 -22 q 50 349 50 185 q 129 607 50 507 q 371 707 208 707 q 618 579 543 707 q 504 815 618 721 l 421 739 l 353 807 l 422 871 q 322 917 376 896 l 410 1051 q 549 989 496 1019 l 629 1064 l 697 996 l 631 933 m 433 139 q 574 190 531 139 q 618 347 618 240 q 574 505 618 454 q 433 556 531 556 q 297 506 338 556 q 257 347 257 457 q 297 188 257 238 q 433 139 338 139 z "},"ď":{"ha":1132,"x_min":51,"x_max":1106,"o":"m 619 972 l 825 972 l 825 0 l 619 0 l 619 103 q 371 -22 543 -22 q 131 82 210 -22 q 51 349 51 186 q 131 613 51 508 q 371 717 211 717 q 619 590 542 717 l 619 972 m 435 139 q 575 190 531 139 q 619 347 619 240 q 575 505 619 454 q 435 556 531 556 q 298 506 339 556 q 257 347 257 457 q 298 188 257 238 q 435 139 339 139 m 947 774 l 929 1132 l 1106 1132 l 1088 774 l 947 774 z "},"đ":{"ha":942,"x_min":51,"x_max":942,"o":"m 942 896 l 942 778 l 825 778 l 825 0 l 619 0 l 619 103 q 371 -22 543 -22 q 131 82 210 -22 q 51 349 51 186 q 131 613 51 508 q 371 717 211 717 q 619 590 542 717 l 619 778 l 379 778 l 379 896 l 619 896 l 619 972 l 825 972 l 825 896 l 942 896 m 435 139 q 575 190 531 139 q 619 347 619 240 q 575 505 619 454 q 435 556 531 556 q 298 506 339 556 q 257 347 257 457 q 298 188 257 238 q 435 139 339 139 z "},"e":{"ha":833,"x_min":51,"x_max":785,"o":"m 429 119 q 532 144 493 119 q 586 210 571 168 l 783 210 q 681 44 767 111 q 425 -22 596 -22 q 143 83 235 -22 q 51 349 51 188 q 92 536 51 453 q 217 668 133 619 q 425 717 301 717 q 697 614 610 717 q 785 350 785 511 q 782 294 785 310 l 253 294 q 306 160 261 200 q 429 119 351 119 m 428 578 q 309 542 351 578 q 254 419 267 506 l 589 419 q 544 538 583 499 q 428 578 504 578 z "},"é":{"ha":833,"x_min":51,"x_max":785,"o":"m 429 119 q 532 144 493 119 q 586 210 571 168 l 783 210 q 681 44 767 111 q 425 -22 596 -22 q 143 83 235 -22 q 51 349 51 188 q 92 536 51 453 q 217 668 133 619 q 425 717 301 717 q 697 614 610 717 q 785 350 785 511 q 782 294 785 310 l 253 294 q 306 160 261 200 q 429 119 351 119 m 428 578 q 309 542 351 578 q 254 419 267 506 l 589 419 q 544 538 583 499 q 428 578 504 578 m 575 947 l 615 817 l 240 772 l 224 826 l 575 947 z "},"ě":{"ha":833,"x_min":51,"x_max":785,"o":"m 429 119 q 532 144 493 119 q 586 210 571 168 l 783 210 q 681 44 767 111 q 425 -22 596 -22 q 143 83 235 -22 q 51 349 51 188 q 92 536 51 453 q 217 668 133 619 q 425 717 301 717 q 697 614 610 717 q 785 350 785 511 q 782 294 785 310 l 253 294 q 306 160 261 200 q 429 119 351 119 m 428 578 q 309 542 351 578 q 254 419 267 506 l 589 419 q 544 538 583 499 q 428 578 504 578 m 363 775 l 194 878 l 263 953 l 418 856 l 574 953 l 642 878 l 474 775 l 363 775 z "},"ê":{"ha":833,"x_min":51,"x_max":785,"o":"m 429 119 q 532 144 493 119 q 586 210 571 168 l 783 210 q 681 44 767 111 q 425 -22 596 -22 q 143 83 235 -22 q 51 349 51 188 q 92 536 51 453 q 217 668 133 619 q 425 717 301 717 q 697 614 610 717 q 785 350 785 511 q 782 294 785 310 l 253 294 q 306 160 261 200 q 429 119 351 119 m 428 578 q 309 542 351 578 q 254 419 267 506 l 589 419 q 544 538 583 499 q 428 578 504 578 m 263 757 l 194 832 l 363 935 l 474 935 l 642 832 l 574 757 l 418 853 l 263 757 z "},"ë":{"ha":833,"x_min":51,"x_max":785,"o":"m 429 119 q 532 144 493 119 q 586 210 571 168 l 783 210 q 681 44 767 111 q 425 -22 596 -22 q 143 83 235 -22 q 51 349 51 188 q 92 536 51 453 q 217 668 133 619 q 425 717 301 717 q 697 614 610 717 q 785 350 785 511 q 782 294 785 310 l 253 294 q 306 160 261 200 q 429 119 351 119 m 428 578 q 309 542 351 578 q 254 419 267 506 l 589 419 q 544 538 583 499 q 428 578 504 578 m 364 786 l 175 786 l 175 924 l 364 924 l 364 786 m 660 786 l 471 786 l 471 924 l 660 924 l 660 786 z "},"ė":{"ha":833,"x_min":51,"x_max":785,"o":"m 429 119 q 532 144 493 119 q 586 210 571 168 l 783 210 q 681 44 767 111 q 425 -22 596 -22 q 143 83 235 -22 q 51 349 51 188 q 92 536 51 453 q 217 668 133 619 q 425 717 301 717 q 697 614 610 717 q 785 350 785 511 q 782 294 785 310 l 253 294 q 306 160 261 200 q 429 119 351 119 m 428 578 q 309 542 351 578 q 254 419 267 506 l 589 419 q 544 538 583 499 q 428 578 504 578 m 531 786 l 307 786 l 307 924 l 531 924 l 531 786 z "},"è":{"ha":833,"x_min":51,"x_max":785,"o":"m 429 119 q 532 144 493 119 q 586 210 571 168 l 783 210 q 681 44 767 111 q 425 -22 596 -22 q 143 83 235 -22 q 51 349 51 188 q 92 536 51 453 q 217 668 133 619 q 425 717 301 717 q 697 614 610 717 q 785 350 785 511 q 782 294 785 310 l 253 294 q 306 160 261 200 q 429 119 351 119 m 428 578 q 309 542 351 578 q 254 419 267 506 l 589 419 q 544 538 583 499 q 428 578 504 578 m 599 772 l 224 817 l 264 947 l 615 826 l 599 772 z "},"ē":{"ha":833,"x_min":51,"x_max":785,"o":"m 429 119 q 532 144 493 119 q 586 210 571 168 l 783 210 q 681 44 767 111 q 425 -22 596 -22 q 143 83 235 -22 q 51 349 51 188 q 92 536 51 453 q 217 668 133 619 q 425 717 301 717 q 697 614 610 717 q 785 350 785 511 q 782 294 785 310 l 253 294 q 306 160 261 200 q 429 119 351 119 m 428 578 q 309 542 351 578 q 254 419 267 506 l 589 419 q 544 538 583 499 q 428 578 504 578 m 164 803 l 164 924 l 675 924 l 675 803 l 164 803 z "},"ę":{"ha":833,"x_min":51,"x_max":785,"o":"m 783 210 q 642 21 760 81 q 619 -51 619 -11 q 644 -111 619 -90 q 704 -132 669 -132 q 776 -122 746 -132 l 778 -249 q 688 -265 744 -265 q 544 -219 599 -265 q 490 -96 490 -174 q 507 -18 490 -54 q 425 -22 469 -22 q 143 83 235 -22 q 51 349 51 188 q 92 536 51 453 q 217 668 133 619 q 425 717 301 717 q 697 614 610 717 q 785 350 785 511 q 782 294 785 310 l 253 294 q 306 160 261 200 q 429 119 351 119 q 532 144 493 119 q 586 210 571 168 l 783 210 m 428 578 q 309 542 351 578 q 254 419 267 506 l 589 419 q 544 538 583 499 q 428 578 504 578 z "},"f":{"ha":567,"x_min":28,"x_max":567,"o":"m 151 0 l 151 539 l 28 539 l 28 638 l 151 697 l 151 761 q 208 918 151 864 q 389 972 264 972 l 567 972 l 567 824 l 328 824 l 328 694 l 529 694 l 529 539 l 357 539 l 357 0 l 151 0 z "},"g":{"ha":904,"x_min":56,"x_max":826,"o":"m 621 694 l 826 694 l 826 28 q 735 -215 826 -136 q 438 -293 644 -293 q 172 -222 265 -293 q 72 -31 79 -151 l 274 -31 q 446 -149 288 -149 q 579 -113 538 -149 q 621 4 621 -78 l 621 131 q 379 21 547 21 q 137 117 218 21 q 56 367 56 214 q 136 619 56 522 q 379 715 217 715 q 621 603 546 715 l 621 694 m 444 172 q 580 218 539 172 q 621 364 621 264 q 580 510 621 464 q 444 556 539 556 q 303 512 346 556 q 261 364 261 468 q 303 216 261 260 q 444 172 346 172 z "},"ğ":{"ha":904,"x_min":56,"x_max":826,"o":"m 621 694 l 826 694 l 826 28 q 735 -215 826 -136 q 438 -293 644 -293 q 172 -222 265 -293 q 72 -31 79 -151 l 274 -31 q 446 -149 288 -149 q 579 -113 538 -149 q 621 4 621 -78 l 621 131 q 379 21 547 21 q 137 117 218 21 q 56 367 56 214 q 136 619 56 522 q 379 715 217 715 q 621 603 546 715 l 621 694 m 444 172 q 580 218 539 172 q 621 364 621 264 q 580 510 621 464 q 444 556 539 556 q 303 512 346 556 q 261 364 261 468 q 303 216 261 260 q 444 172 346 172 m 357 924 q 383 875 360 893 q 446 857 406 857 q 509 875 486 857 q 535 924 532 893 l 650 924 q 599 818 646 863 q 446 774 551 774 q 293 818 340 774 q 242 924 246 863 l 357 924 z "},"ģ":{"ha":904,"x_min":56,"x_max":826,"o":"m 621 694 l 826 694 l 826 28 q 735 -215 826 -136 q 438 -293 644 -293 q 172 -222 265 -293 q 72 -31 79 -151 l 274 -31 q 446 -149 288 -149 q 579 -113 538 -149 q 621 4 621 -78 l 621 131 q 379 21 547 21 q 137 117 218 21 q 56 367 56 214 q 136 619 56 522 q 379 715 217 715 q 621 603 546 715 l 621 694 m 444 172 q 580 218 539 172 q 621 364 621 264 q 580 510 621 464 q 444 556 539 556 q 303 512 346 556 q 261 364 261 468 q 303 216 261 260 q 444 172 346 172 m 551 951 l 551 775 l 353 775 l 353 1050 q 386 1155 353 1119 q 501 1190 419 1190 l 551 1190 l 551 1081 l 469 1081 l 469 951 l 551 951 z "},"ġ":{"ha":904,"x_min":56,"x_max":826,"o":"m 621 694 l 826 694 l 826 28 q 735 -215 826 -136 q 438 -293 644 -293 q 172 -222 265 -293 q 72 -31 79 -151 l 274 -31 q 446 -149 288 -149 q 579 -113 538 -149 q 621 4 621 -78 l 621 131 q 379 21 547 21 q 137 117 218 21 q 56 367 56 214 q 136 619 56 522 q 379 715 217 715 q 621 603 546 715 l 621 694 m 444 172 q 580 218 539 172 q 621 364 621 264 q 580 510 621 464 q 444 556 539 556 q 303 512 346 556 q 261 364 261 468 q 303 216 261 260 q 444 172 346 172 m 564 786 l 340 786 l 340 924 l 564 924 l 564 786 z "},"h":{"ha":865,"x_min":81,"x_max":794,"o":"m 536 717 q 794 426 794 717 l 794 0 l 589 0 l 589 394 q 556 513 589 476 q 457 550 522 550 q 329 493 372 550 q 286 315 286 436 l 286 0 l 81 0 l 81 972 l 286 972 l 286 558 q 536 717 361 717 z "},"ħ":{"ha":903,"x_min":0,"x_max":832,"o":"m 574 717 q 832 426 832 717 l 832 0 l 626 0 l 626 394 q 593 513 626 476 q 494 550 560 550 q 367 493 410 550 q 324 315 324 436 l 324 0 l 118 0 l 118 778 l 0 778 l 0 896 l 118 896 l 118 972 l 324 972 l 324 896 l 563 896 l 563 778 l 324 778 l 324 558 q 574 717 399 717 z "},"i":{"ha":365,"x_min":71,"x_max":294,"o":"m 286 0 l 81 0 l 81 694 l 286 694 l 286 0 m 294 786 l 71 786 l 71 924 l 294 924 l 294 786 z "},"ı":{"ha":365,"x_min":81,"x_max":286,"o":"m 286 0 l 81 0 l 81 694 l 286 694 l 286 0 z "},"í":{"ha":365,"x_min":-12,"x_max":379,"o":"m 286 0 l 81 0 l 81 694 l 286 694 l 286 0 m 339 947 l 379 817 l 4 772 l -12 826 l 339 947 z "},"ǐ":{"ha":365,"x_min":-42,"x_max":406,"o":"m 286 0 l 81 0 l 81 694 l 286 694 l 286 0 m 126 775 l -42 878 l 26 953 l 182 856 l 338 953 l 406 878 l 238 775 l 126 775 z "},"î":{"ha":365,"x_min":-42,"x_max":406,"o":"m 286 0 l 81 0 l 81 694 l 286 694 l 286 0 m 26 757 l -42 832 l 126 935 l 238 935 l 406 832 l 338 757 l 182 853 l 26 757 z "},"ï":{"ha":365,"x_min":-61,"x_max":424,"o":"m 286 0 l 81 0 l 81 694 l 286 694 l 286 0 m 128 786 l -61 786 l -61 924 l 128 924 l 128 786 m 424 786 l 235 786 l 235 924 l 424 924 l 424 786 z "},"ì":{"ha":365,"x_min":-12,"x_max":379,"o":"m 286 0 l 81 0 l 81 694 l 286 694 l 286 0 m 363 772 l -12 817 l 28 947 l 379 826 l 363 772 z "},"ī":{"ha":365,"x_min":-72,"x_max":439,"o":"m 286 0 l 81 0 l 81 694 l 286 694 l 286 0 m -72 803 l -72 924 l 439 924 l 439 803 l -72 803 z "},"į":{"ha":365,"x_min":39,"x_max":326,"o":"m 71 924 l 294 924 l 294 786 l 71 786 l 71 924 m 326 -249 q 236 -265 293 -265 q 93 -219 147 -265 q 39 -96 39 -174 q 81 25 39 -29 l 81 694 l 286 694 l 286 0 l 179 0 q 168 -51 168 -26 q 193 -111 168 -90 q 253 -132 218 -132 q 325 -122 294 -132 l 326 -249 z "},"j":{"ha":372,"x_min":-118,"x_max":304,"o":"m -118 -278 l -118 -115 l 89 -115 l 89 694 l 294 694 l 294 -28 q 235 -217 294 -157 q 32 -278 175 -278 l -118 -278 m 304 786 l 81 786 l 81 924 l 304 924 l 304 786 z "},"ȷ":{"ha":372,"x_min":-118,"x_max":294,"o":"m -118 -278 l -118 -115 l 89 -115 l 89 694 l 294 694 l 294 -28 q 235 -217 294 -157 q 32 -278 175 -278 l -118 -278 z "},"k":{"ha":851,"x_min":81,"x_max":842,"o":"m 597 0 l 396 272 l 286 167 l 286 0 l 81 0 l 81 972 l 286 972 l 286 371 q 358 463 324 424 l 579 694 l 825 694 l 825 689 l 526 399 l 842 0 l 597 0 z "},"ķ":{"ha":851,"x_min":81,"x_max":842,"o":"m 597 0 l 396 272 l 286 167 l 286 0 l 81 0 l 81 972 l 286 972 l 286 371 q 358 463 324 424 l 579 694 l 825 694 l 825 689 l 526 399 l 842 0 l 597 0 z "},"l":{"ha":365,"x_min":81,"x_max":286,"o":"m 286 0 l 81 0 l 81 972 l 286 972 l 286 0 z "},"ĺ":{"ha":365,"x_min":-14,"x_max":378,"o":"m 286 0 l 81 0 l 81 972 l 286 972 l 286 0 m 338 1225 l 378 1096 l 4 1050 l -14 1104 l 338 1225 z "},"ľ":{"ha":594,"x_min":81,"x_max":567,"o":"m 286 0 l 81 0 l 81 972 l 286 972 l 286 0 m 408 774 l 390 1132 l 567 1132 l 549 774 l 408 774 z "},"ļ":{"ha":365,"x_min":81,"x_max":286,"o":"m 286 0 l 81 0 l 81 972 l 286 972 l 286 0 z "},"ł":{"ha":615,"x_min":39,"x_max":576,"o":"m 411 608 l 576 672 l 576 511 l 411 447 l 411 0 l 206 0 l 206 368 l 39 303 l 39 463 l 206 528 l 206 972 l 411 972 l 411 608 z "},"m":{"ha":1328,"x_min":81,"x_max":1257,"o":"m 1001 717 q 1194 642 1131 717 q 1257 426 1257 567 l 1257 0 l 1051 0 l 1051 397 q 1020 513 1051 475 q 926 550 989 550 q 808 494 847 550 q 769 315 769 438 l 769 0 l 568 0 l 568 397 q 537 513 568 475 q 443 550 506 550 q 325 494 364 550 q 286 315 286 438 l 286 0 l 81 0 l 81 694 l 286 694 l 286 568 q 524 717 356 717 q 753 556 706 717 q 1001 717 822 717 z "},"n":{"ha":865,"x_min":81,"x_max":794,"o":"m 536 717 q 794 426 794 717 l 794 0 l 589 0 l 589 394 q 556 513 589 476 q 457 550 522 550 q 329 493 372 550 q 286 315 286 436 l 286 0 l 81 0 l 81 694 l 286 694 l 286 558 q 536 717 361 717 z "},"ń":{"ha":865,"x_min":81,"x_max":794,"o":"m 536 717 q 794 426 794 717 l 794 0 l 589 0 l 589 394 q 556 513 589 476 q 457 550 522 550 q 329 493 372 550 q 286 315 286 436 l 286 0 l 81 0 l 81 694 l 286 694 l 286 558 q 536 717 361 717 m 589 947 l 629 817 l 254 772 l 238 826 l 589 947 z "},"ň":{"ha":865,"x_min":81,"x_max":794,"o":"m 536 717 q 794 426 794 717 l 794 0 l 589 0 l 589 394 q 556 513 589 476 q 457 550 522 550 q 329 493 372 550 q 286 315 286 436 l 286 0 l 81 0 l 81 694 l 286 694 l 286 558 q 536 717 361 717 m 378 775 l 210 878 l 278 953 l 433 856 l 589 953 l 657 878 l 489 775 l 378 775 z "},"ņ":{"ha":865,"x_min":81,"x_max":794,"o":"m 536 717 q 794 426 794 717 l 794 0 l 589 0 l 589 394 q 556 513 589 476 q 457 550 522 550 q 329 493 372 550 q 286 315 286 436 l 286 0 l 81 0 l 81 694 l 286 694 l 286 558 q 536 717 361 717 z "},"ŋ":{"ha":865,"x_min":81,"x_max":794,"o":"m 532 717 q 730 642 665 717 q 794 426 794 567 l 794 -28 q 738 -217 794 -157 q 539 -278 682 -278 l 408 -278 l 408 -115 l 589 -115 l 589 394 q 555 513 589 476 q 453 550 521 550 q 328 493 371 550 q 286 315 286 436 l 286 0 l 81 0 l 81 694 l 286 694 l 286 563 q 381 676 321 635 q 532 717 442 717 z "},"ñ":{"ha":865,"x_min":81,"x_max":794,"o":"m 536 717 q 794 426 794 717 l 794 0 l 589 0 l 589 394 q 556 513 589 476 q 457 550 522 550 q 329 493 372 550 q 286 315 286 436 l 286 0 l 81 0 l 81 694 l 286 694 l 286 558 q 536 717 361 717 m 553 776 q 490 787 519 776 q 419 817 460 797 q 347 842 369 842 q 314 800 314 842 l 314 779 l 186 779 l 186 819 q 221 906 186 879 q 314 933 256 933 q 380 923 351 933 q 449 893 408 913 q 488 874 472 881 q 519 868 504 868 q 553 910 553 868 l 553 931 l 681 931 l 681 894 q 645 806 681 835 q 553 776 610 776 z "},"o":{"ha":872,"x_min":51,"x_max":821,"o":"m 436 -22 q 218 28 304 -22 q 92 163 132 79 q 51 349 51 246 q 92 533 51 450 q 218 667 132 617 q 436 717 304 717 q 655 666 568 717 q 781 532 742 615 q 821 349 821 449 q 781 163 821 247 q 655 28 742 79 q 436 -22 568 -22 m 258 347 q 300 186 258 233 q 436 139 342 139 q 574 186 532 139 q 615 347 615 233 q 574 508 615 461 q 436 556 532 556 q 300 508 342 556 q 258 347 258 461 z "},"ó":{"ha":872,"x_min":51,"x_max":821,"o":"m 436 -22 q 218 28 304 -22 q 92 163 132 79 q 51 349 51 246 q 92 533 51 450 q 218 667 132 617 q 436 717 304 717 q 655 666 568 717 q 781 532 742 615 q 821 349 821 449 q 781 163 821 247 q 655 28 742 79 q 436 -22 568 -22 m 258 347 q 300 186 258 233 q 436 139 342 139 q 574 186 532 139 q 615 347 615 233 q 574 508 615 461 q 436 556 532 556 q 300 508 342 556 q 258 347 258 461 m 593 947 l 633 817 l 258 772 l 242 826 l 593 947 z "},"ǒ":{"ha":872,"x_min":51,"x_max":821,"o":"m 436 -22 q 218 28 304 -22 q 92 163 132 79 q 51 349 51 246 q 92 533 51 450 q 218 667 132 617 q 436 717 304 717 q 655 666 568 717 q 781 532 742 615 q 821 349 821 449 q 781 163 821 247 q 655 28 742 79 q 436 -22 568 -22 m 258 347 q 300 186 258 233 q 436 139 342 139 q 574 186 532 139 q 615 347 615 233 q 574 508 615 461 q 436 556 532 556 q 300 508 342 556 q 258 347 258 461 m 381 775 l 213 878 l 281 953 l 436 856 l 592 953 l 660 878 l 492 775 l 381 775 z "},"ô":{"ha":872,"x_min":51,"x_max":821,"o":"m 436 -22 q 218 28 304 -22 q 92 163 132 79 q 51 349 51 246 q 92 533 51 450 q 218 667 132 617 q 436 717 304 717 q 655 666 568 717 q 781 532 742 615 q 821 349 821 449 q 781 163 821 247 q 655 28 742 79 q 436 -22 568 -22 m 258 347 q 300 186 258 233 q 436 139 342 139 q 574 186 532 139 q 615 347 615 233 q 574 508 615 461 q 436 556 532 556 q 300 508 342 556 q 258 347 258 461 m 281 757 l 213 832 l 381 935 l 492 935 l 660 832 l 592 757 l 436 853 l 281 757 z "},"ö":{"ha":872,"x_min":51,"x_max":821,"o":"m 436 -22 q 218 28 304 -22 q 92 163 132 79 q 51 349 51 246 q 92 533 51 450 q 218 667 132 617 q 436 717 304 717 q 655 666 568 717 q 781 532 742 615 q 821 349 821 449 q 781 163 821 247 q 655 28 742 79 q 436 -22 568 -22 m 258 347 q 300 186 258 233 q 436 139 342 139 q 574 186 532 139 q 615 347 615 233 q 574 508 615 461 q 436 556 532 556 q 300 508 342 556 q 258 347 258 461 m 382 786 l 193 786 l 193 924 l 382 924 l 382 786 m 678 786 l 489 786 l 489 924 l 678 924 l 678 786 z "},"ò":{"ha":872,"x_min":51,"x_max":821,"o":"m 436 -22 q 218 28 304 -22 q 92 163 132 79 q 51 349 51 246 q 92 533 51 450 q 218 667 132 617 q 436 717 304 717 q 655 666 568 717 q 781 532 742 615 q 821 349 821 449 q 781 163 821 247 q 655 28 742 79 q 436 -22 568 -22 m 258 347 q 300 186 258 233 q 436 139 342 139 q 574 186 532 139 q 615 347 615 233 q 574 508 615 461 q 436 556 532 556 q 300 508 342 556 q 258 347 258 461 m 617 772 l 242 817 l 282 947 l 633 826 l 617 772 z "},"ő":{"ha":872,"x_min":51,"x_max":821,"o":"m 436 -22 q 218 28 304 -22 q 92 163 132 79 q 51 349 51 246 q 92 533 51 450 q 218 667 132 617 q 436 717 304 717 q 655 666 568 717 q 781 532 742 615 q 821 349 821 449 q 781 163 821 247 q 655 28 742 79 q 436 -22 568 -22 m 258 347 q 300 186 258 233 q 436 139 342 139 q 574 186 532 139 q 615 347 615 233 q 574 508 615 461 q 436 556 532 556 q 300 508 342 556 q 258 347 258 461 m 653 992 l 746 892 l 521 775 l 482 815 l 653 992 m 360 985 l 453 886 l 226 768 l 189 810 l 360 985 z "},"ō":{"ha":872,"x_min":51,"x_max":821,"o":"m 436 -22 q 218 28 304 -22 q 92 163 132 79 q 51 349 51 246 q 92 533 51 450 q 218 667 132 617 q 436 717 304 717 q 655 666 568 717 q 781 532 742 615 q 821 349 821 449 q 781 163 821 247 q 655 28 742 79 q 436 -22 568 -22 m 258 347 q 300 186 258 233 q 436 139 342 139 q 574 186 532 139 q 615 347 615 233 q 574 508 615 461 q 436 556 532 556 q 300 508 342 556 q 258 347 258 461 m 182 803 l 182 924 l 693 924 l 693 803 l 182 803 z "},"ø":{"ha":872,"x_min":51,"x_max":821,"o":"m 632 678 q 774 545 728 633 q 821 349 821 457 q 781 163 821 247 q 655 28 742 79 q 436 -22 568 -22 q 358 -17 390 -22 l 279 -217 l 169 -178 l 246 14 q 99 147 147 58 q 51 349 51 236 q 92 533 51 450 q 218 667 132 617 q 436 717 304 717 q 519 711 486 717 l 585 875 l 694 835 l 632 678 m 258 347 q 271 242 258 283 q 310 176 283 200 l 458 556 l 436 556 q 300 508 342 556 q 258 347 258 461 m 436 139 q 574 186 532 139 q 615 347 615 233 q 568 515 615 467 l 419 139 l 436 139 z "},"õ":{"ha":872,"x_min":51,"x_max":821,"o":"m 436 -22 q 218 28 304 -22 q 92 163 132 79 q 51 349 51 246 q 92 533 51 450 q 218 667 132 617 q 436 717 304 717 q 655 666 568 717 q 781 532 742 615 q 821 349 821 449 q 781 163 821 247 q 655 28 742 79 q 436 -22 568 -22 m 258 347 q 300 186 258 233 q 436 139 342 139 q 574 186 532 139 q 615 347 615 233 q 574 508 615 461 q 436 556 532 556 q 300 508 342 556 q 258 347 258 461 m 556 776 q 492 787 522 776 q 422 817 463 797 q 350 842 372 842 q 317 800 317 842 l 317 779 l 189 779 l 189 819 q 224 906 189 879 q 317 933 258 933 q 383 923 354 933 q 451 893 411 913 q 491 874 475 881 q 522 868 507 868 q 556 910 556 868 l 556 931 l 683 931 l 683 894 q 648 806 683 835 q 556 776 613 776 z "},"œ":{"ha":1364,"x_min":51,"x_max":1315,"o":"m 960 119 q 1062 144 1024 119 q 1115 210 1100 168 l 1313 210 q 1212 45 1296 113 q 961 -22 1128 -22 q 696 76 781 -22 q 429 -22 613 -22 q 215 28 300 -22 q 91 163 131 79 q 51 349 51 246 q 91 533 51 450 q 215 667 131 617 q 429 717 300 717 q 699 604 610 717 q 968 717 790 717 q 1229 613 1143 717 q 1315 350 1315 510 q 1311 294 1315 318 l 782 294 q 835 160 790 200 q 960 119 881 119 m 957 578 q 838 542 881 578 q 783 419 796 506 l 1119 419 q 1073 538 1113 499 q 957 578 1033 578 m 436 139 q 574 186 532 139 q 615 347 615 233 q 574 508 615 461 q 436 556 532 556 q 300 508 342 556 q 258 347 258 461 q 300 186 258 233 q 436 139 342 139 z "},"p":{"ha":901,"x_min":78,"x_max":851,"o":"m 531 717 q 772 613 692 717 q 851 347 851 510 q 772 82 851 186 q 531 -22 692 -22 q 283 101 361 -22 l 283 -278 l 78 -278 l 78 694 l 283 694 l 283 594 q 531 717 361 717 m 468 139 q 604 188 564 139 q 644 347 644 238 q 604 506 644 457 q 468 556 564 556 q 327 505 371 556 q 283 347 283 454 q 327 190 283 240 q 468 139 371 139 z "},"þ":{"ha":901,"x_min":78,"x_max":851,"o":"m 531 717 q 772 613 692 717 q 851 347 851 510 q 772 82 851 186 q 531 -22 692 -22 q 283 101 361 -22 l 283 -278 l 78 -278 l 78 972 l 283 972 l 283 594 q 531 717 361 717 m 468 139 q 604 188 564 139 q 644 347 644 238 q 604 506 644 457 q 468 556 564 556 q 327 505 371 556 q 283 347 283 454 q 327 190 283 240 q 468 139 371 139 z "},"q":{"ha":901,"x_min":51,"x_max":825,"o":"m 619 694 l 825 694 l 825 -278 l 619 -278 l 619 104 q 371 -22 542 -22 q 131 82 211 -22 q 51 347 51 186 q 131 613 51 510 q 371 717 210 717 q 619 592 543 717 l 619 694 m 435 139 q 575 190 531 139 q 619 347 619 240 q 575 505 619 454 q 435 556 531 556 q 298 506 339 556 q 257 347 257 457 q 298 188 257 238 q 435 139 339 139 z "},"r":{"ha":571,"x_min":81,"x_max":539,"o":"m 539 706 l 539 506 l 471 506 q 328 450 369 506 q 286 274 286 394 l 286 0 l 81 0 l 81 694 l 281 694 l 281 546 q 358 665 307 624 q 493 706 408 706 l 539 706 z "},"ŕ":{"ha":571,"x_min":81,"x_max":539,"o":"m 539 706 l 539 506 l 471 506 q 328 450 369 506 q 286 274 286 394 l 286 0 l 81 0 l 81 694 l 281 694 l 281 546 q 358 665 307 624 q 493 706 408 706 l 539 706 m 442 947 l 482 817 l 107 772 l 90 826 l 442 947 z "},"ř":{"ha":571,"x_min":61,"x_max":539,"o":"m 539 706 l 539 506 l 471 506 q 328 450 369 506 q 286 274 286 394 l 286 0 l 81 0 l 81 694 l 281 694 l 281 546 q 358 665 307 624 q 493 706 408 706 l 539 706 m 229 775 l 61 878 l 129 953 l 285 856 l 440 953 l 508 878 l 340 775 l 229 775 z "},"ŗ":{"ha":571,"x_min":81,"x_max":539,"o":"m 539 706 l 539 506 l 471 506 q 328 450 369 506 q 286 274 286 394 l 286 0 l 81 0 l 81 694 l 281 694 l 281 546 q 358 665 307 624 q 493 706 408 706 l 539 706 z "},"s":{"ha":747,"x_min":36,"x_max":706,"o":"m 224 226 q 268 140 228 174 q 383 107 308 107 q 508 188 508 107 q 487 242 508 222 q 411 269 465 263 l 256 289 q 106 353 157 301 q 54 492 54 404 q 140 661 54 604 q 369 718 225 718 q 600 661 514 718 q 696 492 686 604 l 506 492 q 466 563 500 536 q 369 589 432 589 q 275 568 306 589 q 244 511 244 547 q 264 464 244 482 q 332 440 283 446 l 478 424 q 652 356 599 408 q 706 208 706 303 q 381 -22 706 -22 q 123 48 207 -22 q 36 226 39 118 l 224 226 z "},"ś":{"ha":747,"x_min":36,"x_max":706,"o":"m 224 226 q 268 140 228 174 q 383 107 308 107 q 508 188 508 107 q 487 242 508 222 q 411 269 465 263 l 256 289 q 106 353 157 301 q 54 492 54 404 q 140 661 54 604 q 369 718 225 718 q 600 661 514 718 q 696 492 686 604 l 506 492 q 466 563 500 536 q 369 589 432 589 q 275 568 306 589 q 244 511 244 547 q 264 464 244 482 q 332 440 283 446 l 478 424 q 652 356 599 408 q 706 208 706 303 q 381 -22 706 -22 q 123 48 207 -22 q 36 226 39 118 l 224 226 m 526 947 l 567 817 l 192 772 l 175 826 l 526 947 z "},"š":{"ha":747,"x_min":36,"x_max":706,"o":"m 224 226 q 268 140 228 174 q 383 107 308 107 q 508 188 508 107 q 487 242 508 222 q 411 269 465 263 l 256 289 q 106 353 157 301 q 54 492 54 404 q 140 661 54 604 q 369 718 225 718 q 600 661 514 718 q 696 492 686 604 l 506 492 q 466 563 500 536 q 369 589 432 589 q 275 568 306 589 q 244 511 244 547 q 264 464 244 482 q 332 440 283 446 l 478 424 q 652 356 599 408 q 706 208 706 303 q 381 -22 706 -22 q 123 48 207 -22 q 36 226 39 118 l 224 226 m 315 775 l 147 878 l 215 953 l 371 856 l 526 953 l 594 878 l 426 775 l 315 775 z "},"ş":{"ha":747,"x_min":36,"x_max":706,"o":"m 706 208 q 471 -17 706 13 l 494 -124 q 499 -158 499 -143 q 471 -228 499 -203 q 393 -254 443 -254 l 244 -254 l 244 -126 l 353 -126 l 328 -21 q 110 58 181 -10 q 36 226 39 126 l 224 226 q 268 140 228 174 q 383 107 308 107 q 508 188 508 107 q 487 242 508 222 q 411 269 465 263 l 256 289 q 106 353 157 301 q 54 492 54 404 q 140 661 54 604 q 369 718 225 718 q 600 661 514 718 q 696 492 686 604 l 506 492 q 466 563 500 536 q 369 589 432 589 q 275 568 306 589 q 244 511 244 547 q 264 464 244 482 q 332 440 283 446 l 478 424 q 652 356 599 408 q 706 208 706 303 z "},"ș":{"ha":747,"x_min":36,"x_max":706,"o":"m 224 226 q 268 140 228 174 q 383 107 308 107 q 508 188 508 107 q 487 242 508 222 q 411 269 465 263 l 256 289 q 106 353 157 301 q 54 492 54 404 q 140 661 54 604 q 369 718 225 718 q 600 661 514 718 q 696 492 686 604 l 506 492 q 466 563 500 536 q 369 589 432 589 q 275 568 306 589 q 244 511 244 547 q 264 464 244 482 q 332 440 283 446 l 478 424 q 652 356 599 408 q 706 208 706 303 q 381 -22 706 -22 q 123 48 207 -22 q 36 226 39 118 l 224 226 z "},"ß":{"ha":933,"x_min":81,"x_max":878,"o":"m 81 604 q 183 860 81 775 q 497 944 285 944 q 776 875 686 944 q 865 697 865 806 q 813 550 865 606 q 675 478 760 494 q 878 251 878 446 q 801 67 878 133 q 579 0 725 0 l 403 0 l 403 161 l 532 161 q 658 281 658 161 q 519 403 658 403 l 403 403 l 403 560 l 515 560 q 613 589 582 560 q 644 671 644 618 q 490 785 644 785 q 292 604 292 785 l 292 0 l 81 0 l 81 604 z "},"t":{"ha":583,"x_min":15,"x_max":547,"o":"m 397 0 q 198 60 254 0 q 142 250 142 121 l 142 539 l 15 539 l 15 638 l 158 696 l 243 860 l 347 860 l 347 694 l 547 694 l 547 539 l 347 539 l 347 164 l 528 164 l 528 0 l 397 0 z "},"ŧ":{"ha":583,"x_min":15,"x_max":547,"o":"m 547 539 l 347 539 l 347 451 l 547 451 l 547 324 l 347 324 l 347 164 l 528 164 l 528 0 l 397 0 q 198 60 254 0 q 142 250 142 121 l 142 324 l 15 324 l 15 451 l 142 451 l 142 539 l 15 539 l 15 638 l 158 696 l 243 860 l 347 860 l 347 694 l 547 694 l 547 539 z "},"ť":{"ha":636,"x_min":15,"x_max":600,"o":"m 397 0 q 198 60 254 0 q 142 250 142 121 l 142 539 l 15 539 l 15 638 l 158 696 l 243 860 l 347 860 l 347 694 l 547 694 l 547 539 l 347 539 l 347 164 l 528 164 l 528 0 l 397 0 m 442 774 l 424 1132 l 600 1132 l 582 774 l 442 774 z "},"ţ":{"ha":583,"x_min":15,"x_max":547,"o":"m 547 539 l 347 539 l 347 164 l 528 164 l 528 0 l 421 0 l 449 -124 q 453 -158 453 -143 q 425 -228 453 -203 q 347 -254 397 -254 l 199 -254 l 199 -126 l 307 -126 l 274 17 q 172 97 201 40 q 142 250 142 153 l 142 539 l 15 539 l 15 638 l 158 696 l 243 860 l 347 860 l 347 694 l 547 694 l 547 539 z "},"ț":{"ha":583,"x_min":15,"x_max":547,"o":"m 397 0 q 198 60 254 0 q 142 250 142 121 l 142 539 l 15 539 l 15 638 l 158 696 l 243 860 l 347 860 l 347 694 l 547 694 l 547 539 l 347 539 l 347 164 l 528 164 l 528 0 l 397 0 z "},"u":{"ha":865,"x_min":71,"x_max":785,"o":"m 579 694 l 785 694 l 785 0 l 579 0 l 579 133 q 333 -22 507 -22 q 135 53 200 -22 q 71 269 71 129 l 71 694 l 276 694 l 276 300 q 310 183 276 219 q 413 146 344 146 q 535 205 492 146 q 579 379 579 264 l 579 694 z "},"ú":{"ha":865,"x_min":71,"x_max":785,"o":"m 579 694 l 785 694 l 785 0 l 579 0 l 579 133 q 333 -22 507 -22 q 135 53 200 -22 q 71 269 71 129 l 71 694 l 276 694 l 276 300 q 310 183 276 219 q 413 146 344 146 q 535 205 492 146 q 579 379 579 264 l 579 694 m 585 947 l 625 817 l 250 772 l 233 826 l 585 947 z "},"ǔ":{"ha":865,"x_min":71,"x_max":785,"o":"m 579 694 l 785 694 l 785 0 l 579 0 l 579 133 q 333 -22 507 -22 q 135 53 200 -22 q 71 269 71 129 l 71 694 l 276 694 l 276 300 q 310 183 276 219 q 413 146 344 146 q 535 205 492 146 q 579 379 579 264 l 579 694 m 372 775 l 204 878 l 272 953 l 428 856 l 583 953 l 651 878 l 483 775 l 372 775 z "},"û":{"ha":865,"x_min":71,"x_max":785,"o":"m 579 694 l 785 694 l 785 0 l 579 0 l 579 133 q 333 -22 507 -22 q 135 53 200 -22 q 71 269 71 129 l 71 694 l 276 694 l 276 300 q 310 183 276 219 q 413 146 344 146 q 535 205 492 146 q 579 379 579 264 l 579 694 m 272 757 l 204 832 l 372 935 l 483 935 l 651 832 l 583 757 l 428 853 l 272 757 z "},"ü":{"ha":865,"x_min":71,"x_max":785,"o":"m 579 694 l 785 694 l 785 0 l 579 0 l 579 133 q 333 -22 507 -22 q 135 53 200 -22 q 71 269 71 129 l 71 694 l 276 694 l 276 300 q 310 183 276 219 q 413 146 344 146 q 535 205 492 146 q 579 379 579 264 l 579 694 m 374 786 l 185 786 l 185 924 l 374 924 l 374 786 m 669 786 l 481 786 l 481 924 l 669 924 l 669 786 z "},"ǘ":{"ha":865,"x_min":71,"x_max":785,"o":"m 579 694 l 785 694 l 785 0 l 579 0 l 579 133 q 333 -22 507 -22 q 135 53 200 -22 q 71 269 71 129 l 71 694 l 276 694 l 276 300 q 310 183 276 219 q 413 146 344 146 q 535 205 492 146 q 579 379 579 264 l 579 694 m 374 786 l 185 786 l 185 924 l 374 924 l 374 786 m 669 786 l 481 786 l 481 924 l 669 924 l 669 786 m 585 1176 l 625 1046 l 250 1001 l 233 1056 l 585 1176 z "},"ǚ":{"ha":865,"x_min":71,"x_max":785,"o":"m 579 694 l 785 694 l 785 0 l 579 0 l 579 133 q 333 -22 507 -22 q 135 53 200 -22 q 71 269 71 129 l 71 694 l 276 694 l 276 300 q 310 183 276 219 q 413 146 344 146 q 535 205 492 146 q 579 379 579 264 l 579 694 m 374 786 l 185 786 l 185 924 l 374 924 l 374 786 m 669 786 l 481 786 l 481 924 l 669 924 l 669 786 m 372 1004 l 204 1107 l 272 1182 l 428 1085 l 583 1182 l 651 1107 l 483 1004 l 372 1004 z "},"ǜ":{"ha":865,"x_min":71,"x_max":785,"o":"m 579 694 l 785 694 l 785 0 l 579 0 l 579 133 q 333 -22 507 -22 q 135 53 200 -22 q 71 269 71 129 l 71 694 l 276 694 l 276 300 q 310 183 276 219 q 413 146 344 146 q 535 205 492 146 q 579 379 579 264 l 579 694 m 374 786 l 185 786 l 185 924 l 374 924 l 374 786 m 669 786 l 481 786 l 481 924 l 669 924 l 669 786 m 608 1001 l 233 1046 l 274 1176 l 625 1056 l 608 1001 z "},"ǖ":{"ha":865,"x_min":71,"x_max":785,"o":"m 579 694 l 785 694 l 785 0 l 579 0 l 579 133 q 333 -22 507 -22 q 135 53 200 -22 q 71 269 71 129 l 71 694 l 276 694 l 276 300 q 310 183 276 219 q 413 146 344 146 q 535 205 492 146 q 579 379 579 264 l 579 694 m 374 786 l 185 786 l 185 924 l 374 924 l 374 786 m 669 786 l 481 786 l 481 924 l 669 924 l 669 786 m 174 1032 l 174 1153 l 685 1153 l 685 1032 l 174 1032 z "},"ù":{"ha":865,"x_min":71,"x_max":785,"o":"m 579 694 l 785 694 l 785 0 l 579 0 l 579 133 q 333 -22 507 -22 q 135 53 200 -22 q 71 269 71 129 l 71 694 l 276 694 l 276 300 q 310 183 276 219 q 413 146 344 146 q 535 205 492 146 q 579 379 579 264 l 579 694 m 608 772 l 233 817 l 274 947 l 625 826 l 608 772 z "},"ű":{"ha":865,"x_min":71,"x_max":785,"o":"m 579 694 l 785 694 l 785 0 l 579 0 l 579 133 q 333 -22 507 -22 q 135 53 200 -22 q 71 269 71 129 l 71 694 l 276 694 l 276 300 q 310 183 276 219 q 413 146 344 146 q 535 205 492 146 q 579 379 579 264 l 579 694 m 644 992 l 738 892 l 513 775 l 474 815 l 644 992 m 351 985 l 444 886 l 218 768 l 181 810 l 351 985 z "},"ū":{"ha":865,"x_min":71,"x_max":785,"o":"m 579 694 l 785 694 l 785 0 l 579 0 l 579 133 q 333 -22 507 -22 q 135 53 200 -22 q 71 269 71 129 l 71 694 l 276 694 l 276 300 q 310 183 276 219 q 413 146 344 146 q 535 205 492 146 q 579 379 579 264 l 579 694 m 174 803 l 174 924 l 685 924 l 685 803 l 174 803 z "},"ų":{"ha":865,"x_min":71,"x_max":822,"o":"m 822 -249 q 732 -265 789 -265 q 589 -219 643 -265 q 535 -96 535 -174 q 579 28 535 -28 l 579 133 q 333 -22 507 -22 q 135 53 200 -22 q 71 269 71 129 l 71 694 l 276 694 l 276 300 q 310 183 276 219 q 413 146 344 146 q 535 205 492 146 q 579 379 579 264 l 579 694 l 785 694 l 785 0 l 675 0 q 664 -51 664 -26 q 689 -111 664 -90 q 749 -132 714 -132 q 821 -122 790 -132 l 822 -249 z "},"ů":{"ha":865,"x_min":71,"x_max":785,"o":"m 579 694 l 785 694 l 785 0 l 579 0 l 579 133 q 333 -22 507 -22 q 135 53 200 -22 q 71 269 71 129 l 71 694 l 276 694 l 276 300 q 310 183 276 219 q 413 146 344 146 q 535 205 492 146 q 579 379 579 264 l 579 694 m 429 769 q 345 802 376 769 q 314 882 314 835 q 345 960 314 928 q 429 993 376 993 q 512 960 481 993 q 543 882 543 928 q 513 802 543 835 q 429 769 482 769 m 388 882 q 399 849 388 861 q 429 838 411 838 q 458 849 446 838 q 469 882 469 861 q 458 913 469 901 q 429 924 446 924 q 399 913 411 924 q 388 882 388 901 z "},"v":{"ha":799,"x_min":14,"x_max":786,"o":"m 407 160 l 590 694 l 786 694 l 544 0 l 256 0 l 14 694 l 224 694 l 407 160 z "},"w":{"ha":1264,"x_min":22,"x_max":1242,"o":"m 917 154 l 1049 694 l 1242 694 l 1058 0 l 772 0 l 632 481 l 493 0 l 206 0 l 22 694 l 231 694 l 364 153 l 533 694 l 747 694 l 917 154 z "},"ẃ":{"ha":1264,"x_min":22,"x_max":1242,"o":"m 917 154 l 1049 694 l 1242 694 l 1058 0 l 772 0 l 632 481 l 493 0 l 206 0 l 22 694 l 231 694 l 364 153 l 533 694 l 747 694 l 917 154 m 789 947 l 829 817 l 454 772 l 438 826 l 789 947 z "},"ŵ":{"ha":1264,"x_min":22,"x_max":1242,"o":"m 917 154 l 1049 694 l 1242 694 l 1058 0 l 772 0 l 632 481 l 493 0 l 206 0 l 22 694 l 231 694 l 364 153 l 533 694 l 747 694 l 917 154 m 476 757 l 408 832 l 576 935 l 688 935 l 856 832 l 788 757 l 632 853 l 476 757 z "},"ẅ":{"ha":1264,"x_min":22,"x_max":1242,"o":"m 917 154 l 1049 694 l 1242 694 l 1058 0 l 772 0 l 632 481 l 493 0 l 206 0 l 22 694 l 231 694 l 364 153 l 533 694 l 747 694 l 917 154 m 578 786 l 389 786 l 389 924 l 578 924 l 578 786 m 874 786 l 685 786 l 685 924 l 874 924 l 874 786 z "},"ẁ":{"ha":1264,"x_min":22,"x_max":1242,"o":"m 917 154 l 1049 694 l 1242 694 l 1058 0 l 772 0 l 632 481 l 493 0 l 206 0 l 22 694 l 231 694 l 364 153 l 533 694 l 747 694 l 917 154 m 813 772 l 438 817 l 478 947 l 829 826 l 813 772 z "},"x":{"ha":786,"x_min":13,"x_max":778,"o":"m 243 0 l 15 0 l 275 339 l 13 694 l 254 694 l 401 475 l 543 694 l 765 694 l 513 350 l 778 0 l 538 0 l 389 217 l 243 0 z "},"y":{"ha":807,"x_min":18,"x_max":793,"o":"m 597 694 l 793 694 l 550 -21 q 483 -168 518 -114 q 390 -250 449 -222 q 233 -278 331 -278 l 60 -278 l 60 -115 l 328 -115 l 374 13 l 256 13 l 18 694 l 228 694 l 381 261 l 417 147 l 449 261 l 597 694 z "},"ý":{"ha":807,"x_min":18,"x_max":793,"o":"m 597 694 l 793 694 l 550 -21 q 483 -168 518 -114 q 390 -250 449 -222 q 233 -278 331 -278 l 60 -278 l 60 -115 l 328 -115 l 374 13 l 256 13 l 18 694 l 228 694 l 381 261 l 417 147 l 449 261 l 597 694 m 560 947 l 600 817 l 225 772 l 208 826 l 560 947 z "},"ŷ":{"ha":807,"x_min":18,"x_max":793,"o":"m 597 694 l 793 694 l 550 -21 q 483 -168 518 -114 q 390 -250 449 -222 q 233 -278 331 -278 l 60 -278 l 60 -115 l 328 -115 l 374 13 l 256 13 l 18 694 l 228 694 l 381 261 l 417 147 l 449 261 l 597 694 m 249 757 l 181 832 l 349 935 l 460 935 l 628 832 l 560 757 l 404 853 l 249 757 z "},"ÿ":{"ha":807,"x_min":18,"x_max":793,"o":"m 597 694 l 793 694 l 550 -21 q 483 -168 518 -114 q 390 -250 449 -222 q 233 -278 331 -278 l 60 -278 l 60 -115 l 328 -115 l 374 13 l 256 13 l 18 694 l 228 694 l 381 261 l 417 147 l 449 261 l 597 694 m 350 786 l 161 786 l 161 924 l 350 924 l 350 786 m 646 786 l 457 786 l 457 924 l 646 924 l 646 786 z "},"ỳ":{"ha":807,"x_min":18,"x_max":793,"o":"m 597 694 l 793 694 l 550 -21 q 483 -168 518 -114 q 390 -250 449 -222 q 233 -278 331 -278 l 60 -278 l 60 -115 l 328 -115 l 374 13 l 256 13 l 18 694 l 228 694 l 381 261 l 417 147 l 449 261 l 597 694 m 583 772 l 208 817 l 249 947 l 600 826 l 583 772 z "},"z":{"ha":758,"x_min":56,"x_max":707,"o":"m 703 544 l 304 151 l 707 151 l 707 0 l 56 0 l 56 151 l 460 544 l 61 544 l 61 694 l 703 694 l 703 544 z "},"ź":{"ha":758,"x_min":56,"x_max":707,"o":"m 703 544 l 304 151 l 707 151 l 707 0 l 56 0 l 56 151 l 460 544 l 61 544 l 61 694 l 703 694 l 703 544 m 546 947 l 586 817 l 211 772 l 194 826 l 546 947 z "},"ž":{"ha":758,"x_min":56,"x_max":707,"o":"m 703 544 l 304 151 l 707 151 l 707 0 l 56 0 l 56 151 l 460 544 l 61 544 l 61 694 l 703 694 l 703 544 m 333 775 l 165 878 l 233 953 l 389 856 l 544 953 l 613 878 l 444 775 l 333 775 z "},"ż":{"ha":758,"x_min":56,"x_max":707,"o":"m 703 544 l 304 151 l 707 151 l 707 0 l 56 0 l 56 151 l 460 544 l 61 544 l 61 694 l 703 694 l 703 544 m 501 786 l 278 786 l 278 924 l 501 924 l 501 786 z "},"Δ":{"ha":1025,"x_min":69,"x_max":956,"o":"m 660 924 l 956 164 l 956 0 l 69 0 l 69 164 l 365 924 l 660 924 m 513 753 l 288 163 l 738 163 l 513 753 z "},"Ω":{"ha":1128,"x_min":53,"x_max":1076,"o":"m 53 0 l 53 160 l 289 160 q 135 292 189 203 q 81 510 81 382 q 129 722 81 622 q 287 884 178 821 q 564 947 396 947 q 842 884 733 947 q 999 722 950 821 q 1049 510 1049 622 q 994 292 1049 382 q 839 160 939 203 l 1076 160 l 1076 0 l 53 0 m 564 190 q 772 265 713 190 q 831 492 831 340 q 772 719 831 644 q 564 793 713 793 q 357 719 415 793 q 299 492 299 644 q 357 265 299 340 q 564 190 415 190 z "},"π":{"ha":1067,"x_min":67,"x_max":1001,"o":"m 1001 539 l 822 539 l 822 164 l 982 164 l 982 0 l 872 0 q 673 60 729 0 q 617 250 617 121 l 617 539 l 458 539 l 458 0 l 253 0 l 253 539 l 67 539 l 67 694 l 1001 694 l 1001 539 z "},".":{"ha":261,"x_min":28,"x_max":233,"o":"m 233 0 l 28 0 l 28 183 l 233 183 l 233 0 z "},",":{"ha":254,"x_min":28,"x_max":226,"o":"m 28 7 l 28 183 l 226 183 l 226 -93 q 193 -197 226 -161 q 78 -232 160 -232 l 28 -232 l 28 -124 l 110 -124 l 110 7 l 28 7 z "},":":{"ha":261,"x_min":28,"x_max":233,"o":"m 233 0 l 28 0 l 28 183 l 233 183 l 233 0 m 233 511 l 28 511 l 28 694 l 233 694 l 233 511 z "},";":{"ha":261,"x_min":28,"x_max":233,"o":"m 28 7 l 28 183 l 226 183 l 226 -93 q 193 -197 226 -161 q 78 -232 160 -232 l 28 -232 l 28 -124 l 110 -124 l 110 7 l 28 7 m 233 511 l 28 511 l 28 694 l 233 694 l 233 511 z "},"…":{"ha":872,"x_min":28,"x_max":844,"o":"m 233 0 l 28 0 l 28 183 l 233 183 l 233 0 m 844 0 l 639 0 l 639 183 l 844 183 l 844 0 m 539 0 l 333 0 l 333 183 l 539 183 l 539 0 z "},"!":{"ha":353,"x_min":72,"x_max":281,"o":"m 244 299 l 108 299 l 72 924 l 281 924 l 244 299 m 279 0 l 74 0 l 74 183 l 279 183 l 279 0 z "},"¡":{"ha":353,"x_min":72,"x_max":281,"o":"m 74 511 l 74 694 l 279 694 l 279 511 l 74 511 m 72 -229 l 108 396 l 244 396 l 281 -229 l 72 -229 z "},"?":{"ha":940,"x_min":78,"x_max":871,"o":"m 371 328 l 371 465 l 450 465 q 654 628 654 465 q 613 738 654 696 q 492 781 571 781 q 292 593 303 781 l 78 593 q 183 844 85 739 q 500 949 281 949 q 780 863 689 949 q 871 639 871 778 q 774 410 871 492 q 506 328 678 328 l 371 328 m 582 0 l 376 0 l 376 183 l 582 183 l 582 0 z "},"¿":{"ha":940,"x_min":69,"x_max":864,"o":"m 358 694 l 564 694 l 564 511 l 358 511 l 358 694 m 569 368 l 569 231 l 492 231 q 286 67 286 231 q 328 -44 286 -1 q 450 -86 369 -86 q 649 103 640 -86 l 864 103 q 758 -149 857 -44 q 440 -254 660 -254 q 160 -169 251 -254 q 69 57 69 -83 q 166 286 69 204 q 436 368 263 368 l 569 368 z "},"·":{"ha":261,"x_min":28,"x_max":233,"o":"m 233 254 l 28 254 l 28 438 l 233 438 l 233 254 z "},"•":{"ha":543,"x_min":122,"x_max":422,"o":"m 272 196 q 163 238 204 196 q 122 347 122 279 q 163 456 122 415 q 272 497 204 497 q 381 456 339 497 q 422 347 422 415 q 381 238 422 279 q 272 196 339 196 z "},"*":{"ha":563,"x_min":42,"x_max":521,"o":"m 226 674 l 42 758 l 92 840 l 256 724 l 235 924 l 329 924 l 308 724 l 472 840 l 519 758 l 338 678 l 521 593 l 472 510 l 308 628 l 329 428 l 235 428 l 256 628 l 92 510 l 44 593 l 226 674 z "},"#":{"ha":1258,"x_min":69,"x_max":1189,"o":"m 1189 694 l 1189 561 l 943 561 l 874 375 l 1085 375 l 1085 242 l 825 242 l 735 0 l 561 0 l 651 242 l 421 242 l 331 0 l 157 0 l 247 242 l 69 242 l 69 375 l 296 375 l 365 561 l 174 561 l 174 694 l 415 694 l 500 924 l 674 924 l 589 694 l 819 694 l 904 924 l 1078 924 l 993 694 l 1189 694 m 469 375 l 700 375 l 769 561 l 539 561 l 469 375 z "},"/":{"ha":558,"x_min":14,"x_max":544,"o":"m 201 0 l 14 0 l 357 924 l 544 924 l 201 0 z "},"\\":{"ha":558,"x_min":14,"x_max":544,"o":"m 201 924 l 544 0 l 357 0 l 14 924 l 201 924 z "},"(":{"ha":563,"x_min":56,"x_max":521,"o":"m 56 393 q 172 819 56 646 q 444 1090 288 993 l 521 1015 q 263 393 263 774 q 521 -229 263 13 l 444 -304 q 172 -33 288 -207 q 56 393 56 140 z "},")":{"ha":563,"x_min":42,"x_max":507,"o":"m 507 393 q 391 -33 507 140 q 119 -304 275 -207 l 42 -229 q 300 393 300 13 q 42 1015 300 774 l 119 1090 q 391 819 275 993 q 507 393 507 646 z "},"{":{"ha":619,"x_min":56,"x_max":579,"o":"m 56 313 l 56 474 l 96 474 q 179 503 154 474 q 204 599 204 533 l 204 803 q 295 1012 204 936 q 579 1088 386 1088 l 579 1003 q 446 948 489 1000 q 403 783 403 896 l 403 583 q 370 469 403 513 q 265 411 338 425 l 265 375 q 370 317 338 361 q 403 203 403 274 l 403 3 q 446 -162 403 -110 q 579 -217 489 -214 l 579 -301 q 295 -226 386 -301 q 204 -17 204 -150 l 204 188 q 179 283 204 253 q 96 313 154 313 l 56 313 z "},"}":{"ha":619,"x_min":40,"x_max":564,"o":"m 524 313 q 440 283 465 313 q 415 188 415 253 l 415 -17 q 324 -226 415 -150 q 40 -301 233 -301 l 40 -217 q 174 -162 131 -214 q 217 3 217 -110 l 217 203 q 249 317 217 274 q 354 375 282 361 l 354 411 q 249 469 282 425 q 217 583 217 513 l 217 783 q 174 948 217 896 q 40 1003 131 1000 l 40 1088 q 324 1012 233 1088 q 415 803 415 936 l 415 599 q 440 503 415 533 q 524 474 465 474 l 564 474 l 564 313 l 524 313 z "},"[":{"ha":760,"x_min":115,"x_max":697,"o":"m 697 1063 l 697 899 l 319 899 l 319 -114 l 697 -114 l 697 -278 l 115 -278 l 115 1063 l 697 1063 z "},"]":{"ha":760,"x_min":64,"x_max":646,"o":"m 64 1063 l 646 1063 l 646 -278 l 64 -278 l 64 -114 l 442 -114 l 442 899 l 64 899 l 64 1063 z "},"-":{"ha":660,"x_min":39,"x_max":622,"o":"m 39 288 l 39 428 l 622 428 l 622 288 l 39 288 z "},"–":{"ha":806,"x_min":38,"x_max":767,"o":"m 38 288 l 38 428 l 767 428 l 767 288 l 38 288 z "},"—":{"ha":1097,"x_min":38,"x_max":1058,"o":"m 38 288 l 38 428 l 1058 428 l 1058 288 l 38 288 z "},"_":{"ha":660,"x_min":39,"x_max":622,"o":"m 39 -140 l 39 0 l 622 0 l 622 -140 l 39 -140 z "},"‚":{"ha":254,"x_min":28,"x_max":226,"o":"m 28 7 l 28 183 l 226 183 l 226 -93 q 193 -197 226 -161 q 78 -232 160 -232 l 28 -232 l 28 -124 l 110 -124 l 110 7 l 28 7 z "},"„":{"ha":507,"x_min":28,"x_max":481,"o":"m 28 7 l 28 183 l 226 183 l 226 -93 q 193 -197 226 -161 q 78 -232 160 -232 l 28 -232 l 28 -124 l 110 -124 l 110 7 l 28 7 m 282 7 l 282 183 l 481 183 l 481 -93 q 447 -197 481 -161 q 332 -232 414 -232 l 282 -232 l 282 -124 l 364 -124 l 364 7 l 282 7 z "},"“":{"ha":525,"x_min":28,"x_max":497,"o":"m 226 685 l 226 508 l 28 508 l 28 785 q 61 888 28 853 q 176 924 94 924 l 226 924 l 226 815 l 144 815 l 144 685 l 226 685 m 497 685 l 497 508 l 299 508 l 299 785 q 332 888 299 853 q 447 924 365 924 l 497 924 l 497 815 l 415 815 l 415 685 l 497 685 z "},"”":{"ha":525,"x_min":28,"x_max":497,"o":"m 28 747 l 28 924 l 226 924 l 226 649 q 193 544 226 579 q 78 508 160 508 l 28 508 l 28 618 l 110 618 l 110 747 l 28 747 m 299 747 l 299 924 l 497 924 l 497 649 q 464 544 497 579 q 349 508 431 508 l 299 508 l 299 618 l 381 618 l 381 747 l 299 747 z "},"‘":{"ha":254,"x_min":28,"x_max":226,"o":"m 226 685 l 226 508 l 28 508 l 28 785 q 61 888 28 853 q 176 924 94 924 l 226 924 l 226 815 l 144 815 l 144 685 l 226 685 z "},"’":{"ha":254,"x_min":28,"x_max":226,"o":"m 28 747 l 28 924 l 226 924 l 226 647 q 193 544 226 579 q 78 508 160 508 l 28 508 l 28 617 l 110 617 l 110 747 l 28 747 z "},"«":{"ha":1046,"x_min":74,"x_max":976,"o":"m 349 0 l 74 335 l 74 360 l 349 694 l 565 694 l 271 347 l 565 0 l 349 0 m 760 0 l 485 335 l 485 360 l 760 694 l 976 694 l 682 347 l 976 0 l 760 0 z "},"»":{"ha":1046,"x_min":69,"x_max":974,"o":"m 563 360 l 563 335 l 288 0 l 69 0 l 364 347 l 69 694 l 288 694 l 563 360 m 974 360 l 974 335 l 699 0 l 481 0 l 775 347 l 481 694 l 699 694 l 974 360 z "},"‹":{"ha":635,"x_min":74,"x_max":565,"o":"m 349 0 l 74 335 l 74 360 l 349 694 l 565 694 l 271 347 l 565 0 l 349 0 z "},"›":{"ha":635,"x_min":69,"x_max":563,"o":"m 563 360 l 563 335 l 288 0 l 69 0 l 364 347 l 69 694 l 288 694 l 563 360 z "},"\"":{"ha":467,"x_min":28,"x_max":440,"o":"m 46 565 l 28 924 l 204 924 l 186 565 l 46 565 m 282 565 l 264 924 l 440 924 l 422 565 l 282 565 z "},"'":{"ha":232,"x_min":28,"x_max":204,"o":"m 46 565 l 28 924 l 204 924 l 186 565 l 46 565 z "},"¢":{"ha":753,"x_min":111,"x_max":642,"o":"m 642 574 q 593 437 640 494 q 460 361 546 379 l 460 258 l 303 258 l 303 361 q 160 451 210 382 q 111 615 111 519 q 160 779 111 710 q 303 869 208 849 l 303 972 l 460 972 l 460 869 q 591 794 544 851 q 639 658 638 738 l 493 658 q 461 733 489 707 q 383 758 433 758 q 292 724 322 758 q 263 615 263 690 q 291 506 263 539 q 382 472 319 472 q 463 499 433 472 q 496 574 492 525 l 642 574 z "},"$":{"ha":747,"x_min":36,"x_max":706,"o":"m 706 322 q 475 100 706 132 l 475 -49 l 276 -49 l 276 101 q 97 185 156 121 q 36 343 39 250 l 224 343 q 267 257 228 290 q 379 224 306 224 q 508 303 508 224 q 487 358 508 338 q 411 385 465 378 l 256 406 q 106 469 158 417 q 54 607 54 521 q 114 753 54 699 q 276 826 174 808 l 276 972 l 475 972 l 475 825 q 631 753 574 808 q 696 608 689 699 l 506 608 q 372 704 494 704 q 276 683 308 704 q 244 626 244 661 q 332 556 244 567 l 485 538 q 653 471 601 524 q 706 322 706 418 z "},"€":{"ha":1279,"x_min":111,"x_max":1168,"o":"m 763 606 l 763 493 l 111 493 l 111 606 l 228 606 q 381 853 264 760 q 696 947 497 947 q 1038 851 928 947 q 1163 561 1147 756 l 947 561 q 878 722 936 668 q 697 775 821 775 q 535 733 596 775 q 449 606 474 690 l 763 606 m 1168 374 q 1108 150 1158 238 q 957 19 1058 63 q 693 -24 856 -24 q 379 65 494 -24 q 228 304 264 153 l 111 304 l 111 417 l 763 417 l 763 304 l 450 304 q 533 188 474 225 q 692 150 592 150 q 881 206 821 150 q 950 374 942 261 l 1168 374 z "},"ƒ":{"ha":842,"x_min":111,"x_max":731,"o":"m 731 810 l 524 810 l 524 511 l 703 511 l 703 356 l 524 356 l 524 -28 q 464 -217 524 -157 q 261 -278 404 -278 l 111 -278 l 111 -115 l 318 -115 l 318 356 l 139 356 l 139 511 l 318 511 l 318 722 q 378 912 318 851 q 581 972 438 972 l 731 972 l 731 810 z "},"£":{"ha":842,"x_min":97,"x_max":744,"o":"m 421 149 l 744 149 l 744 0 l 97 0 l 97 149 l 215 149 l 215 424 l 113 424 l 113 551 l 215 551 l 215 722 q 275 912 215 851 q 478 972 335 972 l 701 972 l 701 810 l 421 810 l 421 551 l 631 551 l 631 424 l 421 424 l 421 149 z "},"¥":{"ha":969,"x_min":32,"x_max":939,"o":"m 939 924 l 672 428 l 807 428 l 807 315 l 611 315 l 592 279 l 592 251 l 807 251 l 807 139 l 592 139 l 592 0 l 381 0 l 381 139 l 165 139 l 165 251 l 381 251 l 381 279 l 361 315 l 165 315 l 165 428 l 300 428 l 32 924 l 268 924 l 419 603 q 483 433 442 551 q 551 603 528 551 l 704 924 l 939 924 z "},"+":{"ha":819,"x_min":118,"x_max":701,"o":"m 486 428 l 701 428 l 701 288 l 486 288 l 486 65 l 335 65 l 335 288 l 118 288 l 118 428 l 335 428 l 335 650 l 486 650 l 486 428 z "},"−":{"ha":819,"x_min":118,"x_max":701,"o":"m 118 288 l 118 428 l 701 428 l 701 288 l 118 288 z "},"×":{"ha":869,"x_min":118,"x_max":751,"o":"m 650 683 l 751 582 l 532 363 l 747 147 l 653 51 l 436 268 l 218 50 l 118 150 l 335 368 l 121 582 l 217 678 l 431 464 l 650 683 z "},"÷":{"ha":888,"x_min":118,"x_max":768,"o":"m 444 514 q 371 543 399 514 q 343 614 343 572 q 371 684 343 656 q 444 713 399 713 q 518 684 490 713 q 546 614 546 656 q 518 543 546 572 q 444 514 490 514 m 118 288 l 118 428 l 768 428 l 768 288 l 118 288 m 444 3 q 371 32 399 3 q 343 103 343 61 q 371 173 343 144 q 444 201 399 201 q 518 173 490 201 q 546 103 546 144 q 518 32 546 61 q 444 3 490 3 z "},"=":{"ha":749,"x_min":118,"x_max":629,"o":"m 118 415 l 118 556 l 629 556 l 629 415 l 118 415 m 118 151 l 118 292 l 629 292 l 629 151 l 118 151 z "},"≠":{"ha":749,"x_min":118,"x_max":629,"o":"m 629 556 l 629 415 l 464 415 l 418 292 l 629 292 l 629 151 l 367 151 l 318 22 l 186 22 l 235 151 l 118 151 l 118 292 l 286 292 l 332 415 l 118 415 l 118 556 l 385 556 l 432 682 l 564 682 l 517 556 l 629 556 z "},">":{"ha":733,"x_min":118,"x_max":615,"o":"m 118 496 l 118 632 l 615 444 l 615 261 l 118 74 l 118 208 l 499 353 l 118 496 z "},"<":{"ha":733,"x_min":118,"x_max":615,"o":"m 118 444 l 615 632 l 615 496 l 235 353 l 615 208 l 615 74 l 118 261 l 118 444 z "},"≥":{"ha":831,"x_min":118,"x_max":713,"o":"m 118 549 l 118 674 l 713 569 l 713 363 l 118 258 l 118 383 l 624 467 l 118 549 m 713 68 l 118 68 l 118 194 l 713 194 l 713 68 z "},"≤":{"ha":831,"x_min":119,"x_max":713,"o":"m 119 569 l 713 674 l 713 549 l 208 467 l 713 383 l 713 258 l 119 363 l 119 569 m 713 68 l 119 68 l 119 194 l 713 194 l 713 68 z "},"±":{"ha":824,"x_min":118,"x_max":706,"o":"m 483 694 l 483 542 l 706 542 l 706 415 l 483 415 l 483 264 l 340 264 l 340 415 l 118 415 l 118 542 l 340 542 l 340 694 l 483 694 m 706 68 l 118 68 l 118 194 l 706 194 l 706 68 z "},"≈":{"ha":744,"x_min":118,"x_max":626,"o":"m 501 88 q 416 107 453 88 q 336 160 379 126 q 297 188 313 179 q 267 197 281 197 q 232 153 232 197 l 232 97 l 118 97 l 118 203 q 153 290 118 261 q 243 318 189 318 q 330 299 293 318 q 406 249 367 281 q 447 219 432 228 q 479 210 463 210 q 513 253 513 210 l 513 308 l 626 308 l 626 207 q 590 118 626 149 q 501 88 553 88 m 501 415 q 416 435 453 415 q 336 488 379 454 q 297 516 313 507 q 267 525 281 525 q 232 481 232 525 l 232 425 l 118 425 l 118 531 q 153 617 118 589 q 243 646 189 646 q 330 627 293 646 q 406 576 367 608 q 447 547 432 556 q 479 538 463 538 q 513 581 513 538 l 513 636 l 626 636 l 626 535 q 590 446 626 476 q 501 415 553 415 z "},"~":{"ha":744,"x_min":118,"x_max":626,"o":"m 501 229 q 416 249 453 229 q 336 301 379 268 q 297 330 313 321 q 267 339 281 339 q 232 294 232 339 l 232 239 l 118 239 l 118 344 q 153 431 118 403 q 243 460 189 460 q 330 441 293 460 q 406 390 367 422 q 447 360 432 369 q 479 351 463 351 q 513 394 513 351 l 513 450 l 626 450 l 626 349 q 590 260 626 290 q 501 229 553 229 z "},"¬":{"ha":819,"x_min":118,"x_max":701,"o":"m 118 428 l 701 428 l 701 139 l 558 139 l 558 288 l 118 288 l 118 428 z "},"^":{"ha":778,"x_min":118,"x_max":660,"o":"m 472 924 l 660 506 l 524 506 l 389 806 l 254 506 l 118 506 l 306 924 l 472 924 z "},"∞":{"ha":1256,"x_min":111,"x_max":1144,"o":"m 363 121 q 229 155 286 121 q 142 245 172 189 q 111 369 111 301 q 142 490 111 435 q 229 579 172 546 q 363 613 286 613 q 496 579 439 613 q 583 490 553 546 q 614 369 614 435 q 583 245 614 301 q 496 155 553 189 q 363 121 439 121 m 893 121 q 760 155 817 121 q 672 245 703 189 q 642 369 642 301 q 672 490 642 435 q 760 579 703 546 q 893 613 817 613 q 1026 579 969 613 q 1114 490 1083 546 q 1144 369 1144 435 q 1114 245 1144 301 q 1026 155 1083 189 q 893 121 969 121 m 246 368 q 280 281 246 314 q 363 247 314 247 q 447 281 413 247 q 481 368 481 314 q 447 454 481 424 q 363 485 413 485 q 279 454 313 485 q 246 368 246 424 m 776 368 q 810 281 776 314 q 893 247 844 247 q 977 281 943 247 q 1011 368 1011 314 q 977 454 1011 424 q 893 485 943 485 q 810 454 843 485 q 776 368 776 424 z "},"∫":{"ha":1001,"x_min":111,"x_max":890,"o":"m 111 -278 l 111 -108 l 326 -108 l 467 813 q 506 956 482 904 q 581 1035 529 1008 q 729 1063 633 1063 l 890 1063 l 890 893 l 675 893 l 533 -28 q 496 -172 519 -119 q 419 -251 472 -224 q 271 -278 367 -278 l 111 -278 z "},"∏":{"ha":1186,"x_min":122,"x_max":1078,"o":"m 1078 1063 l 1078 899 l 896 899 l 896 -278 l 708 -278 l 708 899 l 492 899 l 492 -278 l 304 -278 l 304 899 l 122 899 l 122 1063 l 1078 1063 z "},"∑":{"ha":951,"x_min":111,"x_max":840,"o":"m 111 1063 l 840 1063 l 840 899 l 325 899 l 703 393 l 325 -114 l 840 -114 l 840 -278 l 111 -278 l 111 -114 l 490 393 l 111 899 l 111 1063 z "},"√":{"ha":1383,"x_min":111,"x_max":1300,"o":"m 1300 1035 l 1300 871 l 1042 871 l 650 -278 l 375 -278 l 111 332 l 288 332 l 508 -178 l 921 1035 l 1300 1035 z "},"µ":{"ha":865,"x_min":71,"x_max":785,"o":"m 579 694 l 785 694 l 785 0 l 579 0 l 579 128 q 340 -22 510 -22 q 267 -11 303 -22 l 267 -278 l 71 -278 l 71 694 l 276 694 l 276 300 q 310 183 276 219 q 413 146 344 146 q 535 205 492 146 q 579 379 579 264 l 579 694 z "},"∂":{"ha":871,"x_min":50,"x_max":821,"o":"m 50 349 q 129 607 50 507 q 371 707 208 707 q 618 579 543 707 q 537 774 618 682 q 322 917 456 867 l 410 1051 q 721 822 621 974 q 821 435 821 669 q 727 90 821 201 q 438 -22 633 -22 q 145 81 240 -22 q 50 349 50 185 m 257 347 q 297 188 257 238 q 433 139 338 139 q 574 190 531 139 q 618 347 618 240 q 574 505 618 454 q 433 556 531 556 q 297 506 338 556 q 257 347 257 457 z "},"%":{"ha":1181,"x_min":63,"x_max":1108,"o":"m 63 0 l 63 17 l 860 803 l 524 803 l 524 531 l 111 531 l 111 924 l 1007 924 q 1085 860 1085 924 q 1074 821 1085 840 q 1038 774 1064 801 l 265 0 l 63 0 m 239 803 l 239 651 l 397 651 l 397 803 l 239 803 m 1108 0 l 696 0 l 696 392 l 1108 392 l 1108 0 m 824 272 l 824 121 l 982 121 l 982 272 l 824 272 z "},"‰":{"ha":1697,"x_min":63,"x_max":1628,"o":"m 63 0 l 63 17 l 860 803 l 524 803 l 524 531 l 111 531 l 111 924 l 1007 924 q 1085 860 1085 924 q 1074 821 1085 840 q 1038 774 1064 801 l 265 0 l 63 0 m 239 803 l 239 651 l 397 651 l 397 803 l 239 803 m 1108 0 l 696 0 l 696 392 l 1108 392 l 1108 0 m 1628 0 l 1215 0 l 1215 392 l 1628 392 l 1628 0 m 824 272 l 824 121 l 982 121 l 982 272 l 824 272 m 1343 272 l 1343 121 l 1501 121 l 1501 272 l 1343 272 z "},"↑":{"ha":1004,"x_min":69,"x_max":935,"o":"m 503 911 l 935 479 l 836 381 l 576 642 l 576 0 l 429 0 l 429 642 l 168 381 l 69 479 l 503 911 z "},"↗":{"ha":835,"x_min":69,"x_max":765,"o":"m 154 556 l 154 694 l 765 694 l 765 83 l 626 83 l 626 451 l 174 -1 l 69 103 l 522 556 l 154 556 z "},"→":{"ha":1050,"x_min":69,"x_max":981,"o":"m 450 733 l 549 832 l 981 400 l 549 -35 l 450 65 l 713 328 l 69 328 l 69 469 l 715 469 l 450 733 z "},"↘":{"ha":835,"x_min":69,"x_max":765,"o":"m 626 244 l 626 611 l 765 611 l 765 0 l 154 0 l 154 139 l 524 139 l 69 592 l 174 696 l 626 244 z "},"↓":{"ha":1004,"x_min":69,"x_max":935,"o":"m 576 231 l 836 492 l 935 393 l 503 -39 l 69 393 l 168 492 l 429 231 l 429 872 l 576 872 l 576 231 z "},"↙":{"ha":835,"x_min":69,"x_max":765,"o":"m 661 696 l 765 592 l 313 139 l 681 139 l 681 0 l 69 0 l 69 611 l 208 611 l 208 243 l 661 696 z "},"←":{"ha":1050,"x_min":69,"x_max":981,"o":"m 335 469 l 981 469 l 981 328 l 338 328 l 600 65 l 501 -35 l 69 400 l 501 832 l 600 733 l 335 469 z "},"↖":{"ha":835,"x_min":69,"x_max":765,"o":"m 314 556 l 765 103 l 661 -1 l 208 453 l 208 83 l 69 83 l 69 694 l 681 694 l 681 556 l 314 556 z "},"●":{"ha":1113,"x_min":69,"x_max":1043,"o":"m 558 -25 q 313 40 425 -25 q 135 218 200 106 q 69 464 69 331 q 135 707 69 596 q 313 883 200 818 q 558 949 425 949 q 801 883 690 949 q 978 707 913 818 q 1043 464 1043 596 q 978 218 1043 331 q 801 40 913 106 q 558 -25 690 -25 z "},"◊":{"ha":958,"x_min":111,"x_max":847,"o":"m 636 924 l 847 463 l 636 0 l 322 0 l 111 463 l 322 924 l 636 924 m 306 463 l 479 82 l 653 463 l 479 842 l 306 463 z "},"■":{"ha":1064,"x_min":69,"x_max":994,"o":"m 69 0 l 69 924 l 994 924 l 994 0 l 69 0 z "},"▲":{"ha":1172,"x_min":69,"x_max":1103,"o":"m 69 0 l 586 924 l 1103 0 l 69 0 z "},"@":{"ha":1504,"x_min":76,"x_max":1431,"o":"m 781 -278 q 403 -207 561 -278 q 161 2 246 -136 q 76 339 76 140 q 154 677 76 532 q 383 903 232 822 q 747 983 533 983 q 1253 835 1075 983 q 1431 390 1431 686 q 1334 104 1431 194 q 1078 14 1238 14 l 910 14 l 903 132 q 815 36 875 69 q 671 3 754 3 q 449 98 518 3 q 379 347 379 193 q 449 600 379 504 q 671 696 518 696 q 808 668 753 696 q 896 582 863 640 l 896 675 l 1092 675 l 1092 146 l 1121 146 q 1235 208 1189 146 q 1281 404 1281 269 q 1147 750 1281 633 q 747 867 1014 867 q 458 801 575 867 q 284 619 342 736 q 226 347 226 503 q 369 -27 226 99 q 779 -153 513 -153 l 1069 -153 l 1069 -278 l 781 -278 m 736 157 q 862 201 824 157 q 900 350 900 244 q 862 499 900 456 q 736 542 824 542 q 614 499 649 542 q 579 350 579 456 q 614 201 579 244 q 736 157 649 157 z "},"&":{"ha":1029,"x_min":74,"x_max":982,"o":"m 982 385 l 843 385 q 797 204 832 283 l 958 67 l 861 -40 l 715 83 q 414 -24 604 -24 q 167 43 261 -24 q 74 235 74 110 q 117 384 74 322 q 246 493 160 446 q 179 594 201 544 q 157 699 157 643 q 240 882 157 817 q 465 947 324 947 q 674 889 597 947 q 751 731 751 831 q 709 600 751 656 q 578 501 667 544 l 494 461 l 681 303 q 697 392 693 344 q 838 521 711 521 l 982 521 l 982 385 m 463 815 q 368 785 403 815 q 333 701 333 756 q 347 630 333 663 q 389 561 360 597 l 469 599 q 553 651 526 625 q 579 715 579 676 q 549 789 579 763 q 463 815 519 815 m 425 114 q 604 178 533 114 l 353 390 q 250 244 250 329 q 296 149 250 185 q 425 114 342 114 z "},"¶":{"ha":1129,"x_min":83,"x_max":1018,"o":"m 711 924 l 711 -278 l 497 -278 l 497 322 l 378 322 q 156 406 228 322 q 83 628 83 490 q 156 841 83 758 q 378 924 229 924 l 711 924 m 804 -278 l 804 924 l 1018 924 l 1018 -278 l 804 -278 z "},"§":{"ha":851,"x_min":110,"x_max":742,"o":"m 274 -44 q 315 -140 276 -106 q 432 -174 354 -174 q 538 -151 504 -174 q 572 -83 572 -129 q 482 3 572 -10 l 324 22 q 176 87 228 33 q 125 229 125 140 q 202 390 125 333 q 432 453 279 447 q 536 476 506 456 q 567 543 567 497 q 475 628 567 615 l 317 647 q 169 713 221 658 q 118 856 118 767 q 197 1018 118 958 q 419 1078 276 1078 q 644 1015 567 1078 q 729 844 722 953 l 564 844 q 521 924 557 897 q 419 951 485 951 q 324 929 358 951 q 289 865 289 907 q 368 790 289 800 l 517 772 q 736 560 736 747 q 663 391 736 447 q 424 325 589 335 q 325 301 356 319 q 294 243 294 282 q 375 165 294 175 l 522 147 q 742 -67 742 124 q 667 -240 742 -181 q 429 -300 592 -300 q 192 -230 272 -300 q 110 -44 113 -160 l 274 -44 z "},"©":{"ha":1224,"x_min":110,"x_max":1115,"o":"m 613 -25 q 357 40 472 -25 q 176 217 242 106 q 110 463 110 329 q 176 706 110 594 q 358 883 243 818 q 613 949 474 949 q 867 883 751 949 q 1049 706 982 818 q 1115 463 1115 594 q 1049 217 1115 329 q 868 40 983 106 q 613 -25 753 -25 m 613 115 q 794 162 714 115 q 920 288 875 208 q 965 463 965 367 q 920 637 965 557 q 794 763 875 717 q 613 808 713 808 q 431 763 511 808 q 305 638 350 717 q 260 463 260 558 q 305 288 260 367 q 431 162 350 208 q 613 115 511 115 m 364 464 q 428 639 364 569 q 615 708 493 708 q 792 651 729 708 q 856 501 854 594 l 717 501 q 618 593 711 593 q 534 563 561 593 q 507 464 507 532 q 533 363 507 393 q 617 333 560 333 q 721 429 713 333 l 860 429 q 794 278 858 338 q 618 219 731 219 q 429 288 494 219 q 364 464 364 357 z "},"®":{"ha":858,"x_min":83,"x_max":775,"o":"m 429 949 q 603 902 524 949 q 728 777 682 856 q 775 606 775 699 q 728 431 775 511 q 602 303 682 350 q 429 257 522 257 q 256 303 336 257 q 130 431 176 350 q 83 606 83 511 q 130 777 83 699 q 256 902 176 856 q 429 949 335 949 m 431 364 q 549 397 496 364 q 633 485 603 429 q 664 606 664 540 q 633 726 664 671 q 549 813 603 781 q 431 846 496 846 q 310 814 364 846 q 226 726 256 782 q 196 606 196 671 q 226 485 196 540 q 310 397 256 429 q 431 364 364 364 m 585 678 q 561 620 585 642 q 494 594 538 599 q 556 574 538 592 q 575 522 575 557 l 575 504 q 582 440 575 467 l 492 440 q 483 504 483 457 l 483 519 q 442 561 483 561 l 388 561 l 388 440 l 294 440 l 294 771 l 471 771 q 554 746 524 771 q 585 678 585 721 m 447 631 q 486 665 486 631 q 450 696 486 696 l 388 696 l 388 631 l 447 631 z "},"™":{"ha":1451,"x_min":46,"x_max":1338,"o":"m 1338 924 l 1338 308 l 1197 308 l 1197 831 l 1035 308 l 871 308 l 708 833 l 708 308 l 568 308 l 568 813 l 390 813 l 390 308 l 250 308 l 250 813 l 46 813 l 46 924 l 811 924 l 956 447 l 1100 924 l 1338 924 z "},"°":{"ha":628,"x_min":63,"x_max":565,"o":"m 314 503 q 181 537 238 503 q 93 628 124 571 q 63 753 63 685 q 93 873 63 818 q 181 961 124 928 q 314 994 238 994 q 447 961 390 994 q 535 873 504 928 q 565 753 565 818 q 535 628 565 685 q 447 537 504 571 q 314 503 390 503 m 197 750 q 231 663 197 696 q 314 629 265 629 q 398 663 364 629 q 432 750 432 696 q 398 837 432 806 q 314 868 364 868 q 231 837 264 868 q 197 750 197 806 z "},"|":{"ha":440,"x_min":118,"x_max":322,"o":"m 322 -278 l 118 -278 l 118 1063 l 322 1063 l 322 -278 z "},"¦":{"ha":440,"x_min":118,"x_max":322,"o":"m 322 507 l 118 507 l 118 1063 l 322 1063 l 322 507 m 322 -278 l 118 -278 l 118 278 l 322 278 l 322 -278 z "},"†":{"ha":856,"x_min":118,"x_max":738,"o":"m 522 840 l 738 840 l 738 675 l 522 675 l 522 239 l 335 239 l 335 675 l 118 675 l 118 840 l 335 840 l 335 1063 l 522 1063 l 522 840 z "},"‡":{"ha":856,"x_min":118,"x_max":738,"o":"m 738 874 l 738 710 l 522 710 l 522 551 l 738 551 l 738 386 l 522 386 l 522 197 l 335 197 l 335 386 l 118 386 l 118 551 l 335 551 l 335 710 l 118 710 l 118 874 l 335 874 l 335 1063 l 522 1063 l 522 874 l 738 874 z "},"̈":{"ha":0,"x_min":-572,"x_max":-87,"o":"m -383 786 l -572 786 l -572 924 l -383 924 l -383 786 m -87 786 l -276 786 l -276 924 l -87 924 l -87 786 z "},"̇":{"ha":0,"x_min":-296,"x_max":-72,"o":"m -72 786 l -296 786 l -296 924 l -72 924 l -72 786 z "},"̀":{"ha":0,"x_min":-433,"x_max":-42,"o":"m -58 772 l -433 817 l -393 947 l -42 826 l -58 772 z "},"́":{"ha":0,"x_min":-435,"x_max":-43,"o":"m -83 947 l -43 817 l -418 772 l -435 826 l -83 947 z "},"̋":{"ha":0,"x_min":-662,"x_max":-106,"o":"m -199 992 l -106 892 l -331 775 l -369 815 l -199 992 m -492 985 l -399 886 l -625 768 l -662 810 l -492 985 z "},"̂":{"ha":0,"x_min":-503,"x_max":-56,"o":"m -435 757 l -503 832 l -335 935 l -224 935 l -56 832 l -124 757 l -279 853 l -435 757 z "},"̌":{"ha":0,"x_min":-565,"x_max":-118,"o":"m -397 775 l -565 878 l -497 953 l -342 856 l -186 953 l -118 878 l -286 775 l -397 775 z "},"̆":{"ha":0,"x_min":-544,"x_max":-136,"o":"m -429 924 q -403 875 -426 893 q -340 857 -381 857 q -277 875 -300 857 q -251 924 -254 893 l -136 924 q -187 818 -140 863 q -340 774 -235 774 q -493 818 -446 774 q -544 924 -540 863 l -429 924 z "},"̊":{"ha":0,"x_min":-347,"x_max":-118,"o":"m -232 769 q -316 802 -285 769 q -347 882 -347 835 q -316 960 -347 928 q -232 993 -285 993 q -149 960 -181 993 q -118 882 -118 928 q -149 802 -118 835 q -232 769 -179 769 m -274 882 q -262 849 -274 861 q -232 838 -250 838 q -203 849 -215 838 q -192 882 -192 861 q -203 913 -192 901 q -232 924 -215 924 q -262 913 -250 924 q -274 882 -274 901 z "},"̃":{"ha":0,"x_min":-607,"x_max":-112,"o":"m -240 776 q -303 787 -274 776 q -374 817 -333 797 q -446 842 -424 842 q -479 800 -479 842 l -479 779 l -607 779 l -607 819 q -572 906 -607 879 q -479 933 -537 933 q -413 923 -442 933 q -344 893 -385 913 q -305 874 -321 881 q -274 868 -289 868 q -240 910 -240 868 l -240 931 l -112 931 l -112 894 q -148 806 -112 835 q -240 776 -183 776 z "},"̄":{"ha":0,"x_min":-637,"x_max":-126,"o":"m -637 803 l -637 924 l -126 924 l -126 803 l -637 803 z "},"̒":{"ha":0,"x_min":-317,"x_max":-118,"o":"m -118 951 l -118 775 l -317 775 l -317 1050 q -283 1155 -317 1119 q -168 1190 -250 1190 l -118 1190 l -118 1081 l -200 1081 l -200 951 l -118 951 z "},"̦":{"ha":0,"x_min":-268,"x_max":-69,"o":"m -268 -246 l -268 -69 l -69 -69 l -69 -346 q -103 -449 -69 -414 q -218 -485 -136 -485 l -268 -485 l -268 -376 l -186 -376 l -186 -246 l -268 -246 z "},"̧":{"ha":0,"x_min":-335,"x_max":-81,"o":"m -335 -254 l -335 -126 l -226 -126 l -269 54 l -125 54 l -85 -124 q -81 -158 -81 -143 q -108 -228 -81 -203 q -186 -254 -136 -254 l -335 -254 z "},"̨":{"ha":0,"x_min":-397,"x_max":-110,"o":"m -200 -265 q -343 -219 -289 -265 q -397 -96 -397 -174 q -356 25 -397 -28 q -240 114 -314 78 l -194 76 q -268 -51 -268 18 q -243 -111 -268 -90 q -183 -132 -218 -132 q -111 -122 -142 -132 l -110 -249 q -200 -265 -143 -265 z "},"¨":{"ha":833,"x_min":88,"x_max":572,"o":"m 276 786 l 88 786 l 88 924 l 276 924 l 276 786 m 572 786 l 383 786 l 383 924 l 572 924 l 572 786 z "},"˙":{"ha":833,"x_min":74,"x_max":297,"o":"m 297 786 l 74 786 l 74 924 l 297 924 l 297 786 z "},"`":{"ha":833,"x_min":43,"x_max":435,"o":"m 418 772 l 43 817 l 83 947 l 435 826 l 418 772 z "},"´":{"ha":833,"x_min":42,"x_max":433,"o":"m 393 947 l 433 817 l 58 772 l 42 826 l 393 947 z "},"˝":{"ha":833,"x_min":107,"x_max":664,"o":"m 571 992 l 664 892 l 439 775 l 400 815 l 571 992 m 278 985 l 371 886 l 144 768 l 107 810 l 278 985 z "},"ˆ":{"ha":833,"x_min":56,"x_max":503,"o":"m 124 757 l 56 832 l 224 935 l 335 935 l 503 832 l 435 757 l 279 853 l 124 757 z "},"ˇ":{"ha":833,"x_min":118,"x_max":565,"o":"m 286 775 l 118 878 l 186 953 l 342 856 l 497 953 l 565 878 l 397 775 l 286 775 z "},"˘":{"ha":833,"x_min":124,"x_max":532,"o":"m 239 924 q 265 875 242 893 q 328 857 288 857 q 391 875 368 857 q 417 924 414 893 l 532 924 q 481 818 528 863 q 328 774 433 774 q 175 818 222 774 q 124 924 128 863 l 239 924 z "},"˚":{"ha":465,"x_min":118,"x_max":347,"o":"m 233 769 q 149 802 181 769 q 118 882 118 835 q 149 960 118 928 q 233 993 181 993 q 316 960 285 993 q 347 882 347 928 q 317 802 347 835 q 233 769 286 769 m 192 882 q 203 849 192 861 q 233 838 215 838 q 262 849 250 838 q 274 882 274 861 q 262 913 274 901 q 233 924 250 924 q 203 913 215 924 q 192 882 192 901 z "},"˜":{"ha":833,"x_min":118,"x_max":613,"o":"m 485 776 q 422 787 451 776 q 351 817 392 797 q 279 842 301 842 q 246 800 246 842 l 246 779 l 118 779 l 118 819 q 153 906 118 879 q 246 933 188 933 q 312 923 283 933 q 381 893 340 913 q 420 874 404 881 q 451 868 436 868 q 485 910 485 868 l 485 931 l 613 931 l 613 894 q 577 806 613 835 q 485 776 542 776 z "},"¯":{"ha":833,"x_min":128,"x_max":639,"o":"m 128 803 l 128 924 l 639 924 l 639 803 l 128 803 z "},"¸":{"ha":833,"x_min":81,"x_max":335,"o":"m 81 -254 l 81 -126 l 189 -126 l 146 54 l 290 54 l 331 -124 q 335 -158 335 -143 q 307 -228 335 -203 q 229 -254 279 -254 l 81 -254 z "},"˛":{"ha":833,"x_min":97,"x_max":385,"o":"m 294 -265 q 151 -219 206 -265 q 97 -96 97 -174 q 139 25 97 -28 q 254 114 181 78 l 300 76 q 226 -51 226 18 q 251 -111 226 -90 q 311 -132 276 -132 q 383 -122 353 -132 l 385 -249 q 294 -265 351 -265 z "}}}
